<?xml version="1.0" encoding="UTF-8" standalone="no"?>
<!-- Generator: Adobe Illustrator 18.0.0, SVG Export Plug-In . SVG Version: 6.00 Build 0)  -->

<svg
   xmlns:dc="http://purl.org/dc/elements/1.1/"
   xmlns:cc="http://creativecommons.org/ns#"
   xmlns:rdf="http://www.w3.org/1999/02/22-rdf-syntax-ns#"
   xmlns:svg="http://www.w3.org/2000/svg"
   xmlns:sodipodi="http://sodipodi.sourceforge.net/DTD/sodipodi-0.dtd"
   xmlns:inkscape="http://www.inkscape.org/namespaces/inkscape"
   xmlns="http://www.w3.org/2000/svg"
   version="1.1"
   id="Capa_1"
   x="0px"
   y="0px"
   viewBox="0 0 512 512"
   xml:space="preserve"
   sodipodi:docname="cake_pikto.svg"
   width="512"
   height="512"
   inkscape:export-filename="D:\Dropbox\anna\cake_pikto.png"
   inkscape:export-xdpi="96"
   inkscape:export-ydpi="96"
   inkscape:version="0.92.0 r15299"><metadata
     id="metadata6555"><rdf:RDF><cc:Work
         rdf:about=""><dc:format>image/svg+xml</dc:format><dc:type
           rdf:resource="http://purl.org/dc/dcmitype/StillImage" /><dc:title></dc:title></cc:Work></rdf:RDF></metadata><defs
     id="defs6553" /><sodipodi:namedview
     pagecolor="#ffffff"
     bordercolor="#666666"
     borderopacity="1"
     objecttolerance="10"
     gridtolerance="10"
     guidetolerance="10"
     inkscape:pageopacity="0"
     inkscape:pageshadow="2"
     inkscape:window-width="1366"
     inkscape:window-height="705"
     id="namedview6551"
     showgrid="false"
     inkscape:zoom="0.88951124"
     inkscape:cx="99.194672"
     inkscape:cy="316.70698"
     inkscape:window-x="-8"
     inkscape:window-y="-8"
     inkscape:window-maximized="1"
     inkscape:current-layer="Capa_1" /><g
     id="g6520"
     transform="translate(-26.998138,-57.20578)" /><g
     id="g6522"
     transform="translate(-26.998138,-57.20578)" /><g
     id="g6524"
     transform="translate(-26.998138,-57.20578)" /><g
     id="g6526"
     transform="translate(-26.998138,-57.20578)" /><g
     id="g6528"
     transform="translate(-26.998138,-57.20578)" /><g
     id="g6530"
     transform="translate(-26.998138,-57.20578)" /><g
     id="g6532"
     transform="translate(-26.998138,-57.20578)" /><g
     id="g6534"
     transform="translate(-26.998138,-57.20578)" /><g
     id="g6536"
     transform="translate(-26.998138,-57.20578)" /><g
     id="g6538"
     transform="translate(-26.998138,-57.20578)" /><g
     id="g6540"
     transform="translate(-26.998138,-57.20578)" /><g
     id="g6542"
     transform="translate(-26.998138,-57.20578)" /><g
     id="g6544"
     transform="translate(-26.998138,-57.20578)" /><g
     id="g6546"
     transform="translate(-26.998138,-57.20578)" /><g
     id="g6548"
     transform="translate(-26.998138,-57.20578)" /><circle
     id="circle7386"
     r="256"
     cy="256"
     cx="256"
     style="fill:#53b787;fill-opacity:1" /><path
     sodipodi:nodetypes="ccccccc"
     inkscape:connector-curvature="0"
     id="path7388"
     d="m 299.18004,508.35604 c 102.383,-17.394 184.058,-95.565 206.603,-196.098 -97.5524,-97.8159 -144.32331,-156.4983 -202.734,-198.48 l -54.232,47.264 84.39,84.39 -217.341,79.61 z"
     style="fill:#000028;fill-opacity:1" /><rect
     id="rect7390"
     height="56.889"
     width="56.889"
     style="fill:#ff7f4f"
     y="312.88904"
     x="227.55602" /><rect
     id="rect7392"
     height="56.889"
     width="28.444"
     style="fill:#d35933"
     y="312.88904"
     x="256" /><path
     inkscape:connector-curvature="0"
     id="path7394"
     d="m 305.04904,199.11104 h -94.096 c -5.435,0 -9.842,-4.406 -9.842,-9.842 v -65.65 c 0,-5.435 4.406,-9.842 9.842,-9.842 h 94.096 c 5.435,0 9.84,4.406 9.84,9.842 v 65.652 c 0,5.434 -4.406,9.84 -9.84,9.84 z"
     style="fill:#ffffff;fill-opacity:1" /><path
     inkscape:connector-curvature="0"
     id="path7396"
     d="m 331.49304,256.00004 h -150.985 c -5.435,0 -9.842,-4.406 -9.842,-9.84 v -65.652 c 0,-5.435 4.406,-9.842 9.842,-9.842 h 150.985 c 5.435,0 9.84,4.406 9.84,9.842 v 65.652 c 0,5.434 -4.406,9.84 -9.84,9.84 z"
     style="fill:#ffffff" /><g
     style="fill:#ffffff"
     transform="translate(4.1572266e-5,7.0970703e-5)"
     id="g7402"><path
       inkscape:connector-curvature="0"
       id="path7398"
       d="M 331.493,170.667 H 256 V 256 h 75.492 c 5.435,0 9.84,-4.406 9.84,-9.84 v -65.652 c 0.001,-5.435 -4.405,-9.841 -9.839,-9.841 z"
       style="fill:#ffffff" /><path
       inkscape:connector-curvature="0"
       id="path7400"
       d="M 359.938,312.889 H 152.064 c -5.435,0 -9.842,-4.406 -9.842,-9.84 v -65.652 c 0,-5.435 4.406,-9.84 9.842,-9.84 h 207.874 c 5.435,0 9.84,4.406 9.84,9.84 v 65.652 c 0,5.434 -4.407,9.84 -9.84,9.84 z"
       style="fill:#ffffff" /></g><path
     inkscape:connector-curvature="0"
     id="path7404"
     d="m 359.93804,227.55604 h -103.938 v 85.333 h 103.936 c 5.435,0 9.84,-4.406 9.84,-9.84 v -65.652 c 0.002,-5.435 -4.405,-9.841 -9.838,-9.841 z"
     style="fill:#ffffff" /><g
     transform="translate(4.1572266e-5,7.0970703e-5)"
     id="g7410"><path
       inkscape:connector-curvature="0"
       id="path7406"
       d="M 388.382,328.835 H 123.62 c -5.435,0 -9.842,-4.406 -9.842,-9.84 v -8.763 c 0,-5.435 4.406,-9.84 9.842,-9.84 h 264.763 c 5.435,0 9.84,4.406 9.84,9.84 v 8.763 c -0.001,5.434 -4.407,9.84 -9.841,9.84 z"
       style="fill:#d35933" /><path
       inkscape:connector-curvature="0"
       id="path7408"
       d="m 303.049,385.724 h -94.096 c -5.435,0 -9.842,-4.406 -9.842,-9.84 v -8.763 c 0,-5.435 4.406,-9.84 9.842,-9.84 h 94.096 c 5.435,0 9.84,4.406 9.84,9.84 v 8.763 c 0,5.434 -4.406,9.84 -9.84,9.84 z"
       style="fill:#d35933" /></g><g
     transform="translate(4.1572266e-5,7.0970703e-5)"
     id="g7416"><path
       inkscape:connector-curvature="0"
       id="path7412"
       d="M 388.382,300.391 H 256 v 28.444 h 132.38 c 5.435,0 9.84,-4.406 9.84,-9.84 v -8.763 c 0.002,-5.435 -4.404,-9.841 -9.838,-9.841 z"
       style="fill:#b54324" /><path
       inkscape:connector-curvature="0"
       id="path7414"
       d="M 303.049,357.279 H 256 v 28.444 h 47.047 c 5.435,0 9.84,-4.406 9.84,-9.84 v -8.763 c 0.002,-5.434 -4.404,-9.841 -9.838,-9.841 z"
       style="fill:#b54324" /></g><g
     style="fill:#c83737;fill-opacity:1;stroke-width:4.52428341"
     transform="matrix(0.20746954,0,0,0.23547564,221.10008,25.944957)"
     id="g7422"><g
       style="fill:#c83737;fill-opacity:1;stroke-width:4.52428341"
       id="g7420"><path
         style="fill:#c83737;fill-opacity:1;stroke-width:4.52428341"
         inkscape:connector-curvature="0"
         id="path7418"
         d="M 324.341,205.469 302.828,78.363 c -10e-4,-0.006 -0.003,-0.01 -0.004,-0.014 -0.225,-1.525 -0.912,-2.959 -1.992,-4.09 -1.415,-1.482 -3.375,-2.322 -5.425,-2.322 h -36.94 V 66.486 C 270.697,62.593 279.725,49.431 279.725,33.83 279.725,15.176 266.825,0 250.967,0 235.11,0 222.209,15.176 222.209,33.83 c 0,15.602 9.027,28.764 21.258,32.656 v 5.451 h -36.94 c -2.05,0 -4.01,0.84 -5.425,2.322 -0.888,0.93 -1.512,2.06 -1.83,3.281 -0.001,0 -0.002,0.002 -0.002,0.002 l -9.096,34.861 v -36.4 c 0,-16.267 -4.465,-33.793 -11.943,-46.879 C 168.538,12.163 154.06,2.821 137.465,2.821 120.87,2.821 106.392,12.163 96.698,29.124 89.219,42.21 84.755,59.735 84.755,76.003 V 122.5 c 0,2.879 1.622,5.375 4,6.631 l -12.488,64.83 c -0.349,0.506 -0.698,1.008 -1.041,1.523 -15.769,23.658 -24.454,54.969 -24.454,88.168 v 84.059 c 0,4.142 3.357,7.5 7.5,7.5 h 182.153 c 3.903,0 7.154,-2.994 7.475,-6.885 l 3.067,-37.287 3.067,37.287 c 0.32,3.891 3.571,6.885 7.475,6.885 h 27.623 c 4.143,0 7.5,-3.358 7.5,-7.5 V 214.182 h 20.309 c 2.201,0 4.291,-0.967 5.717,-2.645 1.423,-1.678 2.04,-3.896 1.683,-6.068 z m -73.376,26.584 c -3.903,0 -7.154,2.994 -7.475,6.885 l -9.975,121.273 h -9.359 v -76.559 c 0,-12.898 -1.327,-25.506 -3.856,-37.496 v -38.871 h 61.33 v 152.926 h -13.215 l -9.977,-121.273 c -0.318,-3.891 -3.569,-6.885 -7.473,-6.885 z m -20.648,-145.115 13.15,29.34 v 75.77 H 219.255 L 214.381,86.939 h 15.936 z m 24.86,0 h -8.423 z m 27.5,105.109 h -24.21 V 116.27 l 13.148,-29.332 h 15.936 z M 237.208,33.83 c 0,-10.207 6.301,-18.83 13.758,-18.83 7.458,0 13.758,8.623 13.758,18.83 0,10.207 -6.3,18.83 -13.758,18.83 -7.457,0 -13.758,-8.623 -13.758,-18.83 z m -44.958,130.025 4.844,27.889 2.08931,8.15 c 0.047,1.012 5.71169,1.967 6.11669,2.832 v 2.018 c -1.753,-3.199 -6.226,-10.031 -8.206,-13 -0.852,-1.279 0.882,1.219 0,0 l -4.896,-27.746 c 12.94662,0.79497 15.36637,-0.092 0.052,-0.143 z m -13.854,8.241 c -4.482,-3.484 -9.17,-6.375 -14.018,-8.646 0.893,-4.385 3.363,-13.9 8.876,-20.496 z m -40.928,-58.502 c 0.884,0.08 1.784,0.008 2.661,-0.234 13.176,-3.625 22.719,-2.178 26.186,3.969 2.483,4.406 1.24,10.123 -1.479,12.701 -9.047,8.57 -13.112,21.465 -14.763,28.621 -4.135,-0.859 -8.345,-1.303 -12.609,-1.303 -4.264,0 -8.474,0.443 -12.608,1.303 -1.65,-7.156 -5.716,-20.051 -14.763,-28.621 -2.72,-2.578 -3.963,-8.295 -1.479,-12.701 3.466,-6.146 13.009,-7.596 26.186,-3.969 0.895,0.247 1.795,0.312 2.668,0.234 z M 124.846,59.732 c 0,-8.754 5.66,-15.877 12.618,-15.877 6.957,0 12.617,7.123 12.617,15.877 0,8.756 -5.66,15.879 -12.617,15.879 -6.958,0 -12.618,-7.123 -12.618,-15.879 z M 99.754,76.004 c 0,-23.463 11.985,-58.182 37.71,-58.182 25.725,0 37.709,34.719 37.709,58.182 v 28.5 c -4.958,-4.871 -13.944,-9.719 -29.533,-7.59 V 89.23 c 11.249,-3.906 19.441,-15.652 19.441,-29.498 0,-17.025 -12.389,-30.877 -27.617,-30.877 -15.228,0 -27.618,13.852 -27.618,30.877 0,14.395 8.855,26.518 20.794,29.924 v 7.465 c -16.422,-2.605 -25.788,2.371 -30.886,7.381 z m 1.671,66.65 c 5.692,6.605 8.219,16.354 9.123,20.795 -5.177,2.426 -10.174,5.555 -14.933,9.363 z M 209.157,360.211 H 65.771 v -76.559 c 0,-30.27 7.79,-58.627 21.936,-79.848 13.521,-20.285 31.192,-31.457 49.757,-31.457 18.564,0 36.505,10.994 49.758,31.457 18.322,28.287 21.936,68.529 21.936,79.848 v 76.559 z m 88.206,-161.029 2.368,-51.066 z"
         sodipodi:nodetypes="ccccsccsssccsccccscscsscccsssscccssscsccscccsccccccscccccccccccccccccsssssccccccccccccccccccscccccsssssssscccssscccsccccccscscsccccc" /></g></g><path
     inkscape:connector-curvature="0"
     id="path7424"
     d="m 235.06318,98.448756 c 0.1227,-9.55832 0.2776,-12.81811 0.693,-14.58064 1.9091,-8.09945 5.4413,-13.82474 9.9279,-16.0919 1.9123,-0.96633 2.4504,-1.08586 4.3233,-0.96024 4.334,0.29068 7.9209,3.37197 10.6299,9.13124 2.94,6.25066 3.5876,10.63969 3.5876,24.314644 v 10.4975 h -14.6598 -14.6599 z"
     style="opacity:1;fill:#c83737;fill-opacity:1;fill-rule:nonzero;stroke:#c83737;stroke-width:1.37952757;stroke-linecap:round;stroke-linejoin:round;stroke-miterlimit:4;stroke-dasharray:none;stroke-dashoffset:0;stroke-opacity:1" /><path
     inkscape:connector-curvature="0"
     id="path7426"
     d="m 246.58298,61.237436 c -0.2302,-0.92207 -1.0242,-2.6115 -1.7644,-3.75429 -1.5421,-2.3809 -1.6597,-3.23683 -0.5824,-4.2418 0.6941,-0.64762 1.2058,-0.71403 5.4894,-0.71243 4.1555,10e-4 4.8003,0.0802 5.3587,0.65332 0.8797,0.90301 0.793,2.29349 -0.2289,3.6687 -1.0411,1.40104 -2.5307,4.6043 -2.5354,5.45183 0,0.52961 -0.3579,0.61116 -2.6608,0.61116 h -2.6576 z"
     style="opacity:1;fill:#c83737;fill-opacity:1;fill-rule:nonzero;stroke:#c83737;stroke-width:1.37952757;stroke-linecap:round;stroke-linejoin:round;stroke-miterlimit:4;stroke-dasharray:none;stroke-dashoffset:0;stroke-opacity:1" /><path
     inkscape:connector-curvature="0"
     id="path7428"
     d="m 248.20768,42.685077 c -1.3527,-1.38851 -1.4021,-3.66683 -0.1137,-5.23861 0.9345,-1.13997 1.6705,-1.32081 2.551,-0.62685 0.8754,0.6899 1.3315,1.85372 1.3315,3.39785 0,1.13341 -0.2154,1.66787 -0.9945,2.46761 -0.547,0.56147 -1.1712,1.02085 -1.3872,1.02085 -0.2159,0 -0.8401,-0.45938 -1.3871,-1.02085 z"
     style="opacity:1;fill:#c83737;fill-opacity:1;fill-rule:nonzero;stroke:#c83737;stroke-width:1.37952757;stroke-linecap:round;stroke-linejoin:round;stroke-miterlimit:4;stroke-dasharray:none;stroke-dashoffset:0;stroke-opacity:1" /><path
     inkscape:connector-curvature="0"
     id="path7430"
     d="m 271.73568,37.367447 c -1.5978,-1.76043 -1.5912,-5.3255 0.013,-6.97208 1.6566,-1.7004 4.0443,0.38483 4.0443,3.53194 0,3.21158 -2.41,5.25501 -4.0572,3.44014 z"
     style="opacity:1;fill:#c83737;fill-opacity:1;fill-rule:nonzero;stroke:#c83737;stroke-width:1.37952757;stroke-linecap:round;stroke-linejoin:round;stroke-miterlimit:4;stroke-dasharray:none;stroke-dashoffset:0;stroke-opacity:1" /><path
     inkscape:connector-curvature="0"
     id="path7432"
     d="m 274.77068,62.302766 -0.001,-8.6436 1.3998,-3.57968 1.3999,-3.57967 h 1.4936 1.4937 l -0.011,1.30964 c -0.01,1.0724 -0.945,22.75989 -0.9948,23.0496 -0.01,0.048 -1.0867,0.0873 -2.3967,0.0873 h -2.3816 l -0.001,-8.6436 z"
     style="opacity:1;fill:#c83737;fill-opacity:1;fill-rule:nonzero;stroke:#c83737;stroke-width:1.37952757;stroke-linecap:round;stroke-linejoin:round;stroke-miterlimit:4;stroke-dasharray:none;stroke-dashoffset:0;stroke-opacity:1" /><path
     inkscape:connector-curvature="0"
     id="path7434"
     d="m 266.57638,68.065166 c -0.017,-1.58466 -0.2079,-7.09225 -0.4253,-12.23908 l -0.3951,-9.35789 1.529,0.10312 1.529,0.10312 1.266,3.14313 1.266,3.14312 0.012,8.99284 0.012,8.99284 h -2.3817 -2.3816 z"
     style="opacity:1;fill:#c83737;fill-opacity:1;fill-rule:nonzero;stroke:#c83737;stroke-width:1.37952757;stroke-linecap:round;stroke-linejoin:round;stroke-miterlimit:4;stroke-dasharray:none;stroke-dashoffset:0;stroke-opacity:1" /><path
     inkscape:connector-curvature="0"
     id="path7436"
     d="m 267.48258,98.274156 c -0.1049,-6.8669 -0.2792,-14.96045 -0.3872,-17.98571 l -0.1965,-5.50048 h 6.3183 6.3183 v 17.98569 17.985704 h -1.361 c -1.3074,0 -1.3611,-0.045 -1.3667,-1.1351 -0.012,-2.4437 -1.989,-27.712974 -2.213,-28.291124 -0.1308,-0.33779 -0.6296,-0.71509 -1.1084,-0.83843 -1.8101,-0.46633 -1.9075,0.0146 -2.9197,14.42045 -1.1529,16.407804 -1.0784,15.844204 -2.0957,15.844204 h -0.7976 z"
     style="opacity:1;fill:#c83737;fill-opacity:1;fill-rule:nonzero;stroke:#c83737;stroke-width:1.37952757;stroke-linecap:round;stroke-linejoin:round;stroke-miterlimit:4;stroke-dasharray:none;stroke-dashoffset:0;stroke-opacity:1" /><path
     inkscape:connector-curvature="0"
     id="path7438"
     d="m 257.54748,47.023666 c 7e-4,-2.112879 0.057,-2.932209 0.1245,-1.82074 0.068,1.11148 0.067,2.8402 -0.001,3.84161 -0.069,1.0014 -0.1239,0.092 -0.1231,-2.02087 z"
     style="opacity:1;fill:#c83737;fill-opacity:1;fill-rule:nonzero;stroke:#c83737;stroke-width:1.37952757;stroke-linecap:round;stroke-linejoin:round;stroke-miterlimit:4;stroke-dasharray:none;stroke-dashoffset:0;stroke-opacity:1" /><path
     inkscape:connector-curvature="0"
     id="path7440"
     d="m 242.18548,44.472507 c 0.1282,-4.80186 0.2537,-5.77288 1.0121,-7.83388 1.5554,-4.22685 3.6016,-6.20002 6.432,-6.20238 1.9496,-0.002 3.4867,0.99148 4.9185,3.17774 1.903,2.90571 3.0706,8.26591 2.5356,11.640249 -0.1608,1.01394 -0.2081,2.48791 -0.1052,3.27549 l 0.1871,1.43196 -1.3055,-0.68322 c -0.7181,-0.37578 -1.9622,-0.68323 -2.7647,-0.68323 -1.2396,0 -1.4591,-0.10668 -1.4591,-0.70914 0,-0.39003 0.5599,-1.21376 1.2442,-1.8305 1.6873,-1.520699 2.4817,-3.445499 2.4909,-6.035389 0.021,-6.04117 -5.1925,-9.48546 -9.0695,-5.99136 -3.3659,3.03354 -3.401,8.54971 -0.075,11.860919 2.1628,2.15341 2.1705,2.70547 0.038,2.70547 -0.9421,0 -2.1766,0.28646 -2.9272,0.67927 l -1.298,0.67926 z"
     style="opacity:1;fill:#c83737;fill-opacity:1;fill-rule:nonzero;stroke:#c83737;stroke-width:1.37952757;stroke-linecap:round;stroke-linejoin:round;stroke-miterlimit:4;stroke-dasharray:none;stroke-dashoffset:0;stroke-opacity:1" /><path
     sodipodi:nodetypes="sccsccs"
     id="path7442"
     d="m 257.34925,278.73394 c 25.80632,0 48.03551,-18.5867 57.77147,-45.1188 -3.39762,-0.3124 -5.92352,-0.3531 -7.20087,-3.695 -7.93248,24.0854 -27.79727,38.7967 -50.5706,38.7967 -22.77333,0 -41.79382,-14.8802 -49.72631,-38.9656 -6.69428,-0.3576 -4.64754,3.5515 -8.04517,3.8639 9.73596,26.5321 31.96515,45.1188 57.77148,45.1188 z"
     style="fill:#ffd76e;stroke-width:1"
     inkscape:connector-curvature="0" /><path
     sodipodi:nodetypes="cscsssc"
     id="path7444"
     d="m 307.14945,236.47814 c 2.57474,-0.1733 -0.39409,-5.7992 0.95817,-7.6249 0.61453,-0.8297 3.72383,0.2855 5.32448,-0.1351 8.74315,19.4357 31.95441,38.1116 57.05507,38.1116 2.7401,0 0.90904,1.8096 0.90904,4.0416 0,2.232 1.83106,4.0416 -0.90904,4.0416 -28.44361,0 -52.60679,-17.0248 -63.33772,-38.4348 z"
     style="fill:#ffd76e;stroke-width:1"
     inkscape:connector-curvature="0" /><path
     sodipodi:nodetypes="cscsssc"
     id="path7446"
     d="m 207.88676,238.50454 c -1.81321,-0.1221 -0.11122,-7.2256 -1.51681,-8.0335 -1.49738,-0.8607 -4.71509,0.3136 -5.44129,-1.0774 -8.74315,19.4356 -31.61668,37.4361 -56.71734,37.4361 -2.7401,0 -4.96171,1.8096 -4.96171,4.0416 0,2.232 2.22161,4.0416 4.96171,4.0416 28.44361,0 52.94451,-14.9985 63.67544,-36.4084 z"
     style="fill:#ffd76e;stroke-width:1"
     inkscape:connector-curvature="0" /><path
     sodipodi:nodetypes="sccsccs"
     id="path7448"
     d="m 215.95757,221.48064 c 19.08587,0 37.1978,-24.3181 44.39833,-50.8501 -2.51281,-0.3125 -4.35586,0.037 -7.24703,-0.3278 -5.86672,24.0854 -20.30858,41.1608 -37.1513,41.1608 -16.84273,0 -31.28458,-17.0754 -37.1513,-41.1608 -2.37754,1.1927 -5.51034,2.7616 -6.76944,4.7457 7.20054,26.532 24.83487,46.4322 43.92074,46.4322 z"
     style="fill:#ffd76e;stroke-width:1"
     inkscape:connector-curvature="0" /><path
     sodipodi:nodetypes="sccsccs"
     id="path7450"
     d="m 300.26708,223.32034 c 18.5525,0 33.69754,-18.4673 40.69684,-44.9994 0.0649,-3.8945 -4.58377,-6.1784 -4.58377,-6.1784 -5.70277,24.0854 -19.74103,41.1607 -36.11307,41.1607 -16.37205,0 -31.36554,-18.747 -37.0683,-42.8324 -7.19874,0.1962 -4.75613,-0.1162 -7.19874,0.1962 6.99931,26.5321 25.71453,52.6533 44.26704,52.6533 z"
     style="fill:#ffd76e;stroke-width:1"
     inkscape:connector-curvature="0" /><path
     sodipodi:nodetypes="sccsccs"
     id="path7448-8"
     d="m 258.65071,164.62814 c 19.08587,0 37.1978,-24.3181 44.39833,-50.8501 -2.51281,-0.3125 -4.35586,0.037 -7.24703,-0.3278 -5.86672,24.0854 -20.30858,41.1608 -37.1513,41.1608 -16.84273,0 -31.28458,-17.0754 -37.1513,-41.1608 -2.37754,1.1927 -6.52351,-0.9533 -7.78261,1.0308 7.20054,26.532 25.84804,50.1471 44.93391,50.1471 z"
     style="fill:#ffd76e;stroke-width:1"
     inkscape:connector-curvature="0" /><ellipse
     style="fill:#be3c3c;stroke-width:1"
     id="circle5924"
     cx="204.19603"
     cy="234.05383"
     rx="5.3646488"
     ry="6.2089553" /><ellipse
     ry="6.2089553"
     rx="5.3646488"
     cy="232.37366"
     cx="311.67828"
     id="ellipse7485"
     style="fill:#be3c3c;stroke-width:1" /><ellipse
     ry="6.2089553"
     rx="5.3646488"
     cy="174.28542"
     cx="257.64267"
     id="ellipse7487"
     style="fill:#be3c3c;stroke-width:1" /><ellipse
     ry="6.2089553"
     rx="5.3646488"
     cy="118.2234"
     cx="218.46681"
     id="ellipse7489"
     style="fill:#be3c3c;stroke-width:1" /><ellipse
     ry="6.2089553"
     rx="5.3646488"
     cy="118.2234"
     cx="298.50708"
     id="ellipse7491"
     style="fill:#be3c3c;stroke-width:1" /><ellipse
     ry="6.2089553"
     rx="5.3646488"
     cy="175.53688"
     cx="177.19362"
     id="ellipse7493"
     style="fill:#be3c3c;stroke-width:1" /><ellipse
     ry="6.2089553"
     rx="5.3646488"
     cy="177.44728"
     cx="336.71603"
     id="ellipse7495"
     style="fill:#be3c3c;stroke-width:1" /></svg>