<?xml version="1.0" encoding="iso-8859-1"?>
<!-- Generator: Adobe Illustrator 19.0.0, SVG Export Plug-In . SVG Version: 6.00 Build 0)  -->
<svg version="1.1" id="Layer_1" xmlns="http://www.w3.org/2000/svg" xmlns:xlink="http://www.w3.org/1999/xlink" x="0px" y="0px"
	 viewBox="0 0 512 512" style="enable-background:new 0 0 512 512;" xml:space="preserve">
<circle style="fill:#273B7A;" cx="256" cy="256" r="256"/>
<path style="fill:#121149;" d="M505.585,313.166L261.677,69.258l-7.184,16.794l-15.52,5.394l21.411,21.411l-1.65,55.636h-67.286
	l65.346,65.346l-0.527,17.777l-116.3,16.391l76.638,76.638l-66.31,62.604l104.739,104.739C255.357,511.99,255.678,512,256,512
	C377.732,512,479.613,427.03,505.585,313.166z"/>
<polygon style="fill:#FFFFFF;" points="273.029,80.094 261.677,80.094 261.677,69.258 250.325,69.258 250.325,80.094 
	238.973,80.094 238.973,91.446 250.325,91.446 250.325,126.019 261.677,126.019 261.677,91.446 273.029,91.446 "/>
<polygon style="fill:#D0D1D3;" points="261.677,80.094 261.677,69.258 255.426,69.258 255.426,126.019 261.677,126.019 
	261.677,91.446 273.029,91.446 273.029,80.094 "/>
<polygon style="fill:#FF7F4F;" points="309.519,304.681 202.483,304.681 202.483,161.939 256,121.154 309.519,161.939 "/>
<polygon style="fill:#D35933;" points="309.519,161.939 256,121.154 255.426,121.592 255.426,304.681 309.519,304.681 "/>
<path style="fill:#FFC61B;" d="M314.378,171.549c-1.639,0-3.293-0.517-4.698-1.588L256,129.053l-53.681,40.907
	c-3.408,2.596-8.276,1.939-10.873-1.469c-2.598-3.408-1.939-8.276,1.469-10.873l58.382-44.492c2.777-2.119,6.627-2.119,9.404,0
	l58.382,44.492c3.408,2.596,4.065,7.465,1.469,10.873C319.026,170.496,316.714,171.549,314.378,171.549z"/>
<path style="fill:#EAA22F;" d="M319.085,157.622l-58.382-44.492c-1.55-1.183-3.432-1.679-5.277-1.543v17.904l0.574-0.438
	l53.681,40.907c1.403,1.071,3.056,1.588,4.698,1.588c2.336,0,4.648-1.052,6.175-3.055
	C323.151,165.086,322.493,160.216,319.085,157.622z"/>
<polygon style="fill:#D35933;" points="361.705,407.249 150.295,407.249 150.295,259.263 256,216.981 361.705,259.263 "/>
<polygon style="fill:#B54324;" points="361.705,259.263 256,216.981 255.426,217.21 255.426,407.249 361.705,407.249 "/>
<g>
	<path style="fill:#FFC61B;" d="M365.465,270.362c-1.279,0-2.577-0.24-3.839-0.743L256,227.366l-105.625,42.253
		c-5.304,2.122-11.323-0.46-13.446-5.763c-2.12-5.304,0.46-11.323,5.763-13.446l113.311-45.323l113.311,45.323
		c5.303,2.122,7.883,8.142,5.763,13.446C373.455,267.9,369.569,270.36,365.465,270.362z"/>
	<circle style="fill:#FFC61B;" cx="256" cy="174.666" r="17.839"/>
	<rect x="229.245" y="308.458" style="fill:#FFC61B;" width="53.51" height="98.78"/>
</g>
<g>
	<path style="fill:#EAA22F;" d="M369.311,250.411L256,205.088l-0.574,0.229v22.28l0.574-0.229l105.625,42.253
		c1.26,0.503,2.558,0.743,3.839,0.743c4.105-0.002,7.99-2.462,9.607-6.504C377.194,258.551,374.613,252.533,369.311,250.411z"/>
	<path style="fill:#EAA22F;" d="M256,156.832c-0.193,0-0.381,0.022-0.574,0.029v35.621c0.193,0.005,0.381,0.029,0.574,0.029
		c9.852,0,17.839-7.987,17.839-17.839S265.854,156.832,256,156.832z"/>
	<rect x="255.431" y="308.458" style="fill:#EAA22F;" width="27.333" height="98.78"/>
</g>
<g>
</g>
<g>
</g>
<g>
</g>
<g>
</g>
<g>
</g>
<g>
</g>
<g>
</g>
<g>
</g>
<g>
</g>
<g>
</g>
<g>
</g>
<g>
</g>
<g>
</g>
<g>
</g>
<g>
</g>
</svg>
