<?xml version="1.0" encoding="UTF-8" standalone="no"?>
<!-- Created with Inkscape (http://www.inkscape.org/) -->

<svg
   xmlns:dc="http://purl.org/dc/elements/1.1/"
   xmlns:cc="http://creativecommons.org/ns#"
   xmlns:rdf="http://www.w3.org/1999/02/22-rdf-syntax-ns#"
   xmlns:svg="http://www.w3.org/2000/svg"
   xmlns:sodipodi="http://sodipodi.sourceforge.net/DTD/sodipodi-0.dtd"
   xmlns:inkscape="http://www.inkscape.org/namespaces/inkscape"
   xmlns="http://www.w3.org/2000/svg"
   width="196.14365mm"
   height="148.29559mm"
   viewBox="0 0 196.14365 148.29559"
   version="1.1"
   id="svg24597"
   inkscape:version="0.92.0 r15299"
   sodipodi:docname="church.svg">
  <defs
     id="defs24591">
    <filter
       inkscape:collect="always"
       style="color-interpolation-filters:sRGB"
       id="filter16090-4-2-3"
       x="-0.0024150377"
       width="1.0048301"
       y="-0.0070679709"
       height="1.014136">
      <feGaussianBlur
         inkscape:collect="always"
         stdDeviation="0.21486375"
         id="feGaussianBlur16092-2-4-3" />
    </filter>
    <filter
       inkscape:collect="always"
       style="color-interpolation-filters:sRGB"
       id="filter16090-4-2-3-0"
       x="-0.0024150377"
       width="1.0048301"
       y="-0.0070679709"
       height="1.014136">
      <feGaussianBlur
         inkscape:collect="always"
         stdDeviation="0.21486375"
         id="feGaussianBlur16092-2-4-3-1" />
    </filter>
    <filter
       inkscape:collect="always"
       style="color-interpolation-filters:sRGB"
       id="filter16090-4-2-3-2"
       x="-0.0024150377"
       width="1.0048301"
       y="-0.0070679709"
       height="1.014136">
      <feGaussianBlur
         inkscape:collect="always"
         stdDeviation="0.21486375"
         id="feGaussianBlur16092-2-4-3-6" />
    </filter>
    <filter
       inkscape:collect="always"
       style="color-interpolation-filters:sRGB"
       id="filter16090-4-2-3-0-4"
       x="-0.0024150377"
       width="1.0048301"
       y="-0.0070679709"
       height="1.014136">
      <feGaussianBlur
         inkscape:collect="always"
         stdDeviation="0.21486375"
         id="feGaussianBlur16092-2-4-3-1-4" />
    </filter>
  </defs>
  <sodipodi:namedview
     id="base"
     pagecolor="#ffffff"
     bordercolor="#666666"
     borderopacity="1.0"
     inkscape:pageopacity="0.0"
     inkscape:pageshadow="2"
     inkscape:zoom="0.49497475"
     inkscape:cx="446.80876"
     inkscape:cy="187.06836"
     inkscape:document-units="mm"
     inkscape:current-layer="g26002"
     showgrid="false"
     inkscape:window-width="1366"
     inkscape:window-height="705"
     inkscape:window-x="-8"
     inkscape:window-y="-8"
     inkscape:window-maximized="1">
    <inkscape:grid
       type="xygrid"
       id="grid25387"
       originx="15.498796"
       originy="4.753906e-006" />
  </sodipodi:namedview>
  <metadata
     id="metadata24594">
    <rdf:RDF>
      <cc:Work
         rdf:about="">
        <dc:format>image/svg+xml</dc:format>
        <dc:type
           rdf:resource="http://purl.org/dc/dcmitype/StillImage" />
        <dc:title></dc:title>
      </cc:Work>
    </rdf:RDF>
  </metadata>
  <g
     inkscape:label="1. réteg"
     inkscape:groupmode="layer"
     id="layer1"
     transform="translate(-14.901214,-137.42958)">
    <g
       transform="translate(-288.63571,-73.913738)"
       id="layer1-2"
       inkscape:label="Layer 1"
       style="stroke:none">
      <ellipse
         style="fill:#78b451;fill-opacity:1;fill-rule:nonzero;stroke:none;stroke-width:0.26458332"
         cx="401.23767"
         cy="285.49112"
         id="circle7386-8"
         rx="75.751419"
         ry="74.147797" />
      <circle
         style="fill:#8dd35f;fill-opacity:1;stroke:none;stroke-width:0.26458332"
         cx="401.41071"
         cy="285.66071"
         r="67.73333"
         id="circle7386" />
      <g
         transform="translate(33.69551,134.82545)"
         id="layer1-8"
         inkscape:label="Layer 1"
         style="stroke:none" />
    </g>
    <path
       style="fill:#78b451;fill-opacity:1;stroke:#78b451;stroke-width:0.44382945;stroke-linecap:butt;stroke-linejoin:miter;stroke-miterlimit:4;stroke-dasharray:none;stroke-opacity:1;filter:url(#filter16090-4-2-3);enable-background:new"
       d="m 439.55273,484.6875 c -1.93764,0.91542 -3.65407,3.05125 -5.32812,4.82812 -0.43664,0.46354 -3.94987,7.06426 -5.34766,8.7793 1.81751,-0.72804 8.02381,-1.81621 8.83789,-1.9668 4.13732,-0.76572 5.56209,-5.09196 7.81641,-7.51562 2.19898,1.65556 4.30765,3.40632 6.31445,5.25391 -3.41815,1.99375 5.58679,3.28917 -3.20969,3.09356 -0.0641,0.95012 0,0 5.58741,4.1356 6.46121,2.99738 2.29974,0.4703 4.09885,-0.50455 1.77541,2.08273 3.43988,4.25578 4.97461,6.53125 -0.61501,-0.25456 -1.1674,-0.40198 -1.54102,-0.27539 -0.39693,0.13441 -16.5947,2.2203 -17.09584,1.92547 0.0767,0.0891 4.72874,9.66755 13.506,8.31476 1.31346,0.068 3.7943,1.75956 5.36523,2.48828 6.10964,2.83428 4.84993,-7.49486 8.33008,9.27344 1.08506,5.22761 -17.97564,-2.99913 -18.76558,-0.74577 -1.57979,4.50693 10.82323,19.69791 16.86714,13.28288 0.25711,-0.27268 3.09088,-0.21037 3.20313,0.33008 -15.1827,10.96917 14.50563,32.76368 10.57617,-1.0625 0.0431,-0.0419 0.0851,-0.0758 0.12695,-0.10743 -0.0629,-0.003 -0.0497,0.002 -0.12109,-0.002 0.1475,-3.61115 0.14788,-7.30368 -0.004,-11.07812 -0.41672,-0.86892 -0.8391,-1.77713 -1.25391,-2.65821 1.35109,-1.33363 2.17993,-2.98541 1.7168,-5.21679 -0.42956,-2.06975 -0.9745,-7.7313 0.63672,-9.44141 0.37074,-0.39349 4.14994,-4.26631 3.98956,-4.09588 -1.21129,1.2857 -6.36152,3.0532 -7.90558,3.57635 -0.26323,0.0892 -2.15406,2.19314 -3.80273,4.02344 -0.58532,-1.15996 -1.17586,-2.32146 -1.80273,-3.49024 -0.12794,-0.30621 -0.31117,-0.62627 -0.50977,-0.94726 -0.71828,-1.3141 -1.47319,-2.63208 -2.26172,-3.95313 -0.006,-0.0583 -0.0132,-0.1165 -0.01,-0.17187 0.0623,-0.92372 4.39388,-3.38611 5.10742,-5.42188 1.99677,-5.6963 -1.92929,-6.53433 -1.57617,-11.76953 0.0611,-0.90483 2.20171,-4.39879 2.15429,-4.62695 -0.87405,-4.21128 -8.60758,7.83857 -10.85351,8.59961 -0.75644,0.25622 -12.78657,-5.42725 -13.07101,-6.79775 -0.42088,-2.02779 5.32565,-5.20638 4.35547,-9.88086 -0.64981,-3.13099 0.32028,-11.06476 0.11366,-12.82315 -0.89611,1.2971 -6.68605,6.35617 -8.21718,7.98136 -4.39471,4.66449 6.36523,12.12506 1.02413,9.64735 -4.08785,-1.8964 -3.04318,-13.96103 -9.32802,-16.87656 -2.06892,-0.95974 -2.75849,-18.00253 -4.47156,-16.18429 -0.68362,0.72558 -5.89985,8.56467 -6.238,9.52925 -0.76045,2.16972 4.65279,12.17316 4.6059,13.72105 -5.38501,-3.12578 -14.03389,3.44765 -20.94593,0.52889 13.93326,12.94952 11.4932,1.58456 24.35255,11.77001 z"
       transform="matrix(0.21161664,0.4875748,-0.57799324,0.22818156,365.93747,-87.665293)"
       id="path21051-7-8-2"
       inkscape:connector-curvature="0"
       sodipodi:nodetypes="cccccccccccccccccccccccccccccccccccccccccccccccc" />
    <path
       style="fill:#78b451;fill-opacity:1;stroke:#78b451;stroke-width:0.44382945;stroke-linecap:butt;stroke-linejoin:miter;stroke-miterlimit:4;stroke-dasharray:none;stroke-opacity:1;filter:url(#filter16090-4-2-3-0);enable-background:new"
       d="m 439.55273,484.6875 c -1.93764,0.91542 -3.65407,3.05125 -5.32812,4.82812 -0.43664,0.46354 -3.94987,7.06426 -5.34766,8.7793 1.81751,-0.72804 8.02381,-1.81621 8.83789,-1.9668 4.13732,-0.76572 5.56209,-5.09196 7.81641,-7.51562 2.19898,1.65556 4.30765,3.40632 6.31445,5.25391 -3.41815,1.99375 5.58679,3.28917 -3.20969,3.09356 -0.0641,0.95012 0,0 5.58741,4.1356 6.46121,2.99738 2.29974,0.4703 4.09885,-0.50455 1.77541,2.08273 3.43988,4.25578 4.97461,6.53125 -0.61501,-0.25456 -1.1674,-0.40198 -1.54102,-0.27539 -0.39693,0.13441 -16.5947,2.2203 -17.09584,1.92547 0.0767,0.0891 4.72874,9.66755 13.506,8.31476 1.31346,0.068 3.7943,1.75956 5.36523,2.48828 6.10964,2.83428 4.84993,-7.49486 8.33008,9.27344 1.08506,5.22761 -17.97564,-2.99913 -18.76558,-0.74577 -1.57979,4.50693 10.82323,19.69791 16.86714,13.28288 0.25711,-0.27268 3.09088,-0.21037 3.20313,0.33008 -15.1827,10.96917 14.50563,32.76368 10.57617,-1.0625 0.0431,-0.0419 0.0851,-0.0758 0.12695,-0.10743 -0.0629,-0.003 -0.0497,0.002 -0.12109,-0.002 0.1475,-3.61115 0.14788,-7.30368 -0.004,-11.07812 -0.41672,-0.86892 -0.8391,-1.77713 -1.25391,-2.65821 1.35109,-1.33363 2.17993,-2.98541 1.7168,-5.21679 -0.42956,-2.06975 -0.9745,-7.7313 0.63672,-9.44141 0.37074,-0.39349 4.14994,-4.26631 3.98956,-4.09588 -1.21129,1.2857 -6.36152,3.0532 -7.90558,3.57635 -0.26323,0.0892 -2.15406,2.19314 -3.80273,4.02344 -0.58532,-1.15996 -1.17586,-2.32146 -1.80273,-3.49024 -0.12794,-0.30621 -0.31117,-0.62627 -0.50977,-0.94726 -0.71828,-1.3141 -1.47319,-2.63208 -2.26172,-3.95313 -0.006,-0.0583 -0.0132,-0.1165 -0.01,-0.17187 0.0623,-0.92372 4.39388,-3.38611 5.10742,-5.42188 1.99677,-5.6963 -1.92929,-6.53433 -1.57617,-11.76953 0.0611,-0.90483 2.20171,-4.39879 2.15429,-4.62695 -0.87405,-4.21128 -8.60758,7.83857 -10.85351,8.59961 -0.75644,0.25622 -12.78657,-5.42725 -13.07101,-6.79775 -0.42088,-2.02779 5.32565,-5.20638 4.35547,-9.88086 -0.64981,-3.13099 0.32028,-11.06476 0.11366,-12.82315 -0.89611,1.2971 -6.68605,6.35617 -8.21718,7.98136 -4.39471,4.66449 6.36523,12.12506 1.02413,9.64735 -4.08785,-1.8964 -3.04318,-13.96103 -9.32802,-16.87656 -2.06892,-0.95974 -2.75849,-18.00253 -4.47156,-16.18429 -0.68362,0.72558 -5.89985,8.56467 -6.238,9.52925 -0.76045,2.16972 4.65279,12.17316 4.6059,13.72105 -5.38501,-3.12578 -14.03389,3.44765 -20.94593,0.52889 13.93326,12.94952 11.4932,1.58456 24.35255,11.77001 z"
       transform="matrix(-0.21161664,0.4875748,0.57799325,0.22818156,-140.686,-87.091389)"
       id="path21051-7-8-2-9"
       inkscape:connector-curvature="0"
       sodipodi:nodetypes="cccccccccccccccccccccccccccccccccccccccccccccccc" />
    <path
       style="fill:#78b451;fill-opacity:1;stroke:#78b451;stroke-width:0.44382945;stroke-linecap:butt;stroke-linejoin:miter;stroke-miterlimit:4;stroke-dasharray:none;stroke-opacity:1;filter:url(#filter16090-4-2-3-2);enable-background:new"
       d="m 439.55273,484.6875 c -1.93764,0.91542 -3.65407,3.05125 -5.32812,4.82812 -0.43664,0.46354 -3.94987,7.06426 -5.34766,8.7793 1.81751,-0.72804 8.02381,-1.81621 8.83789,-1.9668 4.13732,-0.76572 5.56209,-5.09196 7.81641,-7.51562 2.19898,1.65556 4.30765,3.40632 6.31445,5.25391 -3.41815,1.99375 5.58679,3.28917 -3.20969,3.09356 -0.0641,0.95012 0,0 5.58741,4.1356 6.46121,2.99738 2.29974,0.4703 4.09885,-0.50455 1.77541,2.08273 3.43988,4.25578 4.97461,6.53125 -0.61501,-0.25456 -1.1674,-0.40198 -1.54102,-0.27539 -0.39693,0.13441 -16.5947,2.2203 -17.09584,1.92547 0.0767,0.0891 4.72874,9.66755 13.506,8.31476 1.31346,0.068 3.7943,1.75956 5.36523,2.48828 6.10964,2.83428 4.84993,-7.49486 8.33008,9.27344 1.08506,5.22761 -17.97564,-2.99913 -18.76558,-0.74577 -1.57979,4.50693 10.82323,19.69791 16.86714,13.28288 0.25711,-0.27268 3.09088,-0.21037 3.20313,0.33008 -15.1827,10.96917 14.50563,32.76368 10.57617,-1.0625 0.0431,-0.0419 0.0851,-0.0758 0.12695,-0.10743 -0.0629,-0.003 -0.0497,0.002 -0.12109,-0.002 0.1475,-3.61115 0.14788,-7.30368 -0.004,-11.07812 -0.41672,-0.86892 -0.8391,-1.77713 -1.25391,-2.65821 1.35109,-1.33363 2.17993,-2.98541 1.7168,-5.21679 -0.42956,-2.06975 -0.9745,-7.7313 0.63672,-9.44141 0.37074,-0.39349 4.14994,-4.26631 3.98956,-4.09588 -1.21129,1.2857 -6.36152,3.0532 -7.90558,3.57635 -0.26323,0.0892 -2.15406,2.19314 -3.80273,4.02344 -0.58532,-1.15996 -1.17586,-2.32146 -1.80273,-3.49024 -0.12794,-0.30621 -0.31117,-0.62627 -0.50977,-0.94726 -0.71828,-1.3141 -1.47319,-2.63208 -2.26172,-3.95313 -0.006,-0.0583 -0.0132,-0.1165 -0.01,-0.17187 0.0623,-0.92372 4.39388,-3.38611 5.10742,-5.42188 1.99677,-5.6963 -1.92929,-6.53433 -1.57617,-11.76953 0.0611,-0.90483 2.20171,-4.39879 2.15429,-4.62695 -0.87405,-4.21128 -8.60758,7.83857 -10.85351,8.59961 -0.75644,0.25622 -12.78657,-5.42725 -13.07101,-6.79775 -0.42088,-2.02779 5.32565,-5.20638 4.35547,-9.88086 -0.64981,-3.13099 0.32028,-11.06476 0.11366,-12.82315 -0.89611,1.2971 -6.68605,6.35617 -8.21718,7.98136 -4.39471,4.66449 6.36523,12.12506 1.02413,9.64735 -4.08785,-1.8964 -3.04318,-13.96103 -9.32802,-16.87656 -2.06892,-0.95974 -2.75849,-18.00253 -4.47156,-16.18429 -0.68362,0.72558 -5.89985,8.56467 -6.238,9.52925 -0.76045,2.16972 4.65279,12.17316 4.6059,13.72105 -5.38501,-3.12578 -14.03389,3.44765 -20.94593,0.52889 13.93326,12.94952 11.4932,1.58456 24.35255,11.77001 z"
       transform="matrix(0.21161664,-0.4875748,-0.57799325,-0.22818156,366.63207,510.25427)"
       id="path21051-7-8-2-91"
       inkscape:connector-curvature="0"
       sodipodi:nodetypes="cccccccccccccccccccccccccccccccccccccccccccccccc" />
    <path
       style="fill:#78b451;fill-opacity:1;stroke:#78b451;stroke-width:0.44382945;stroke-linecap:butt;stroke-linejoin:miter;stroke-miterlimit:4;stroke-dasharray:none;stroke-opacity:1;filter:url(#filter16090-4-2-3-0-4);enable-background:new"
       d="m 439.55273,484.6875 c -1.93764,0.91542 -3.65407,3.05125 -5.32812,4.82812 -0.43664,0.46354 -3.94987,7.06426 -5.34766,8.7793 1.81751,-0.72804 8.02381,-1.81621 8.83789,-1.9668 4.13732,-0.76572 5.56209,-5.09196 7.81641,-7.51562 2.19898,1.65556 4.30765,3.40632 6.31445,5.25391 -3.41815,1.99375 5.58679,3.28917 -3.20969,3.09356 -0.0641,0.95012 0,0 5.58741,4.1356 6.46121,2.99738 2.29974,0.4703 4.09885,-0.50455 1.77541,2.08273 3.43988,4.25578 4.97461,6.53125 -0.61501,-0.25456 -1.1674,-0.40198 -1.54102,-0.27539 -0.39693,0.13441 -16.5947,2.2203 -17.09584,1.92547 0.0767,0.0891 4.72874,9.66755 13.506,8.31476 1.31346,0.068 3.7943,1.75956 5.36523,2.48828 6.10964,2.83428 4.84993,-7.49486 8.33008,9.27344 1.08506,5.22761 -17.97564,-2.99913 -18.76558,-0.74577 -1.57979,4.50693 10.82323,19.69791 16.86714,13.28288 0.25711,-0.27268 3.09088,-0.21037 3.20313,0.33008 -15.1827,10.96917 14.50563,32.76368 10.57617,-1.0625 0.0431,-0.0419 0.0851,-0.0758 0.12695,-0.10743 -0.0629,-0.003 -0.0497,0.002 -0.12109,-0.002 0.1475,-3.61115 0.14788,-7.30368 -0.004,-11.07812 -0.41672,-0.86892 -0.8391,-1.77713 -1.25391,-2.65821 1.35109,-1.33363 2.17993,-2.98541 1.7168,-5.21679 -0.42956,-2.06975 -0.9745,-7.7313 0.63672,-9.44141 0.37074,-0.39349 4.14994,-4.26631 3.98956,-4.09588 -1.21129,1.2857 -6.36152,3.0532 -7.90558,3.57635 -0.26323,0.0892 -2.15406,2.19314 -3.80273,4.02344 -0.58532,-1.15996 -1.17586,-2.32146 -1.80273,-3.49024 -0.12794,-0.30621 -0.31117,-0.62627 -0.50977,-0.94726 -0.71828,-1.3141 -1.47319,-2.63208 -2.26172,-3.95313 -0.006,-0.0583 -0.0132,-0.1165 -0.01,-0.17187 0.0623,-0.92372 4.39388,-3.38611 5.10742,-5.42188 1.99677,-5.6963 -1.92929,-6.53433 -1.57617,-11.76953 0.0611,-0.90483 2.20171,-4.39879 2.15429,-4.62695 -0.87405,-4.21128 -8.60758,7.83857 -10.85351,8.59961 -0.75644,0.25622 -12.78657,-5.42725 -13.07101,-6.79775 -0.42088,-2.02779 5.32565,-5.20638 4.35547,-9.88086 -0.64981,-3.13099 0.32028,-11.06476 0.11366,-12.82315 -0.89611,1.2971 -6.68605,6.35617 -8.21718,7.98136 -4.39471,4.66449 6.36523,12.12506 1.02413,9.64735 -4.08785,-1.8964 -3.04318,-13.96103 -9.32802,-16.87656 -2.06892,-0.95974 -2.75849,-18.00253 -4.47156,-16.18429 -0.68362,0.72558 -5.89985,8.56467 -6.238,9.52925 -0.76045,2.16972 4.65279,12.17316 4.6059,13.72105 -5.38501,-3.12578 -14.03389,3.44765 -20.94593,0.52889 13.93326,12.94952 11.4932,1.58456 24.35255,11.77001 z"
       transform="matrix(-0.21161664,-0.4875748,0.57799325,-0.22818156,-139.9914,509.68036)"
       id="path21051-7-8-2-9-5"
       inkscape:connector-curvature="0"
       sodipodi:nodetypes="cccccccccccccccccccccccccccccccccccccccccccccccc" />
    <g
       id="g26002"
       transform="matrix(0.26458333,0,0,0.26458333,-141.5656,27.695937)">
      <polygon
         id="polygon25900"
         points="261.677,91.446 273.029,91.446 273.029,80.094 261.677,80.094 261.677,69.258 250.325,69.258 250.325,80.094 238.973,80.094 238.973,91.446 250.325,91.446 250.325,126.019 261.677,126.019 "
         style="fill:#ffffff;stroke-width:0.83526701"
         transform="matrix(1.2487626,0,0,1.1478085,634.92378,393.16568)" />
      <polygon
         id="polygon25902"
         points="255.426,69.258 255.426,126.019 261.677,126.019 261.677,91.446 273.029,91.446 273.029,80.094 261.677,80.094 261.677,69.258 "
         style="fill:#d0d1d3;stroke-width:0.83526701"
         transform="matrix(1.2487626,0,0,1.1478085,634.92378,393.16568)" />
      <polygon
         id="polygon25904"
         points="309.519,304.681 202.483,304.681 202.483,161.939 256,121.154 309.519,161.939 "
         style="fill:#ff7f4f;stroke-width:0.83526701"
         transform="matrix(1.2487626,0,0,1.1478085,634.92378,393.16568)" />
      <polygon
         id="polygon25906"
         points="309.519,161.939 256,121.154 255.426,121.592 255.426,304.681 309.519,304.681 "
         style="fill:#d35933;stroke-width:0.83526701"
         transform="matrix(1.2487626,0,0,1.1478085,634.92378,393.16568)" />
      <path
         id="path25908"
         d="m 1027.5073,590.07106 c -2.0467,0 -4.1121,-0.59342 -5.8666,-1.82272 l -67.03367,-46.95455 -67.03483,46.9534 c -4.25578,2.97971 -10.33475,2.2256 -13.57779,-1.68613 -3.24429,-3.91173 -2.42136,-9.49927 1.83444,-12.48011 l 72.90526,-51.06831 c 3.46781,-2.4322 8.27554,-2.4322 11.74336,0 l 72.90533,51.06831 c 4.2557,2.9797 5.0762,8.56838 1.8343,12.48011 -1.9056,2.30136 -4.7927,3.51 -7.7098,3.51 z"
         style="fill:#ffc61b;stroke-width:1"
         inkscape:connector-curvature="0" />
      <path
         id="path25910"
         d="m 1033.3852,574.08553 -72.90524,-51.06829 c -1.93558,-1.35786 -4.28575,-1.92717 -6.58971,-1.77107 v 20.55036 l 0.71678,-0.50274 67.03477,46.9534 c 1.7521,1.2293 3.8163,1.82273 5.8667,1.82273 2.9172,0 5.8043,-1.2075 7.7112,-3.50657 3.243,-3.91057 2.4213,-9.5004 -1.8345,-12.47782 z"
         style="fill:#eaa22f;stroke-width:1"
         inkscape:connector-curvature="0" />
      <polygon
         id="polygon25912"
         points="361.705,407.249 150.295,407.249 150.295,259.263 256,216.981 361.705,259.263 "
         style="fill:#d35933;stroke-width:0.83526701"
         transform="matrix(1.2487626,0,0,1.1478085,634.92378,393.16568)" />
      <polygon
         id="polygon25914"
         points="361.705,259.263 256,216.981 255.426,217.21 255.426,407.249 361.705,407.249 "
         style="fill:#b54324;stroke-width:0.83526701"
         transform="matrix(1.2487626,0,0,1.1478085,634.92378,393.16568)" />
      <g
         id="g25922"
         transform="matrix(1.2487626,0,0,1.1478085,634.92378,393.16568)"
         style="stroke-width:0.83526701">
        <path
           id="path25916"
           d="m 365.465,270.362 c -1.279,0 -2.577,-0.24 -3.839,-0.743 L 256,227.366 150.375,269.619 c -5.304,2.122 -11.323,-0.46 -13.446,-5.763 -2.12,-5.304 0.46,-11.323 5.763,-13.446 l 113.311,-45.323 113.311,45.323 c 5.303,2.122 7.883,8.142 5.763,13.446 -1.622,4.044 -5.508,6.504 -9.612,6.506 z"
           style="fill:#ffc61b;stroke-width:0.83526701"
           inkscape:connector-curvature="0" />
        <circle
           id="circle25918"
           r="17.839001"
           cy="174.666"
           cx="256"
           style="fill:#ffc61b;stroke-width:0.83526701" />
        <rect
           id="rect25920"
           height="98.779999"
           width="53.509998"
           style="fill:#ffc61b;stroke-width:0.83526701"
           y="308.45801"
           x="229.245" />
      </g>
      <g
         id="g25930"
         transform="matrix(1.2487626,0,0,1.1478085,634.92378,393.16568)"
         style="stroke-width:0.83526701">
        <path
           id="path25924"
           d="M 369.311,250.411 256,205.088 l -0.574,0.229 v 22.28 l 0.574,-0.229 105.625,42.253 c 1.26,0.503 2.558,0.743 3.839,0.743 4.105,-0.002 7.99,-2.462 9.607,-6.504 2.123,-5.309 -0.458,-11.327 -5.76,-13.449 z"
           style="fill:#eaa22f;stroke-width:0.83526701"
           inkscape:connector-curvature="0" />
        <path
           id="path25926"
           d="m 256,156.832 c -0.193,0 -0.381,0.022 -0.574,0.029 v 35.621 c 0.193,0.005 0.381,0.029 0.574,0.029 9.852,0 17.839,-7.987 17.839,-17.839 0,-9.852 -7.985,-17.84 -17.839,-17.84 z"
           style="fill:#eaa22f;stroke-width:0.83526701"
           inkscape:connector-curvature="0" />
        <rect
           id="rect25928"
           height="98.779999"
           width="27.333"
           style="fill:#eaa22f;stroke-width:0.83526701"
           y="308.45801"
           x="255.431" />
      </g>
      <g
         id="g25932" />
      <g
         id="g25934" />
      <g
         id="g25936" />
      <g
         id="g25938" />
      <g
         id="g25940" />
      <g
         id="g25942" />
      <g
         id="g25944" />
      <g
         id="g25946" />
      <g
         id="g25948" />
      <g
         id="g25950" />
      <g
         id="g25952" />
      <g
         id="g25954" />
      <g
         id="g25956" />
      <g
         id="g25958" />
      <g
         id="g25960" />
    </g>
  </g>
</svg>
