<?xml version="1.0" encoding="UTF-8" standalone="no"?>
<!-- Created with Inkscape (http://www.inkscape.org/) -->

<svg
   xmlns:dc="http://purl.org/dc/elements/1.1/"
   xmlns:cc="http://creativecommons.org/ns#"
   xmlns:rdf="http://www.w3.org/1999/02/22-rdf-syntax-ns#"
   xmlns:svg="http://www.w3.org/2000/svg"
   xmlns:sodipodi="http://sodipodi.sourceforge.net/DTD/sodipodi-0.dtd"
   xmlns:inkscape="http://www.inkscape.org/namespaces/inkscape"
   xmlns="http://www.w3.org/2000/svg"
   width="196.14365mm"
   height="148.29559mm"
   viewBox="0 0 196.14365 148.29559"
   version="1.1"
   id="svg24597"
   inkscape:version="0.92.0 r15299"
   sodipodi:docname="contact.svg">
  <defs
     id="defs24591">
    <filter
       inkscape:collect="always"
       style="color-interpolation-filters:sRGB"
       id="filter16090-4-2-3"
       x="-0.0024150377"
       width="1.0048301"
       y="-0.0070679709"
       height="1.014136">
      <feGaussianBlur
         inkscape:collect="always"
         stdDeviation="0.21486375"
         id="feGaussianBlur16092-2-4-3" />
    </filter>
    <filter
       inkscape:collect="always"
       style="color-interpolation-filters:sRGB"
       id="filter16090-4-2-3-0"
       x="-0.0024150377"
       width="1.0048301"
       y="-0.0070679709"
       height="1.014136">
      <feGaussianBlur
         inkscape:collect="always"
         stdDeviation="0.21486375"
         id="feGaussianBlur16092-2-4-3-1" />
    </filter>
    <filter
       inkscape:collect="always"
       style="color-interpolation-filters:sRGB"
       id="filter16090-4-2-3-2"
       x="-0.0024150377"
       width="1.0048301"
       y="-0.0070679709"
       height="1.014136">
      <feGaussianBlur
         inkscape:collect="always"
         stdDeviation="0.21486375"
         id="feGaussianBlur16092-2-4-3-6" />
    </filter>
    <filter
       inkscape:collect="always"
       style="color-interpolation-filters:sRGB"
       id="filter16090-4-2-3-0-4"
       x="-0.0024150377"
       width="1.0048301"
       y="-0.0070679709"
       height="1.014136">
      <feGaussianBlur
         inkscape:collect="always"
         stdDeviation="0.21486375"
         id="feGaussianBlur16092-2-4-3-1-4" />
    </filter>
  </defs>
  <sodipodi:namedview
     id="base"
     pagecolor="#ffffff"
     bordercolor="#666666"
     borderopacity="1.0"
     inkscape:pageopacity="0.0"
     inkscape:pageshadow="2"
     inkscape:zoom="0.7"
     inkscape:cx="242.25343"
     inkscape:cy="324.63883"
     inkscape:document-units="mm"
     inkscape:current-layer="layer1"
     showgrid="false"
     inkscape:window-width="1366"
     inkscape:window-height="705"
     inkscape:window-x="-8"
     inkscape:window-y="-8"
     inkscape:window-maximized="1">
    <inkscape:grid
       type="xygrid"
       id="grid25387"
       originx="15.498796"
       originy="4.753906e-006" />
  </sodipodi:namedview>
  <metadata
     id="metadata24594">
    <rdf:RDF>
      <cc:Work
         rdf:about="">
        <dc:format>image/svg+xml</dc:format>
        <dc:type
           rdf:resource="http://purl.org/dc/dcmitype/StillImage" />
        <dc:title></dc:title>
      </cc:Work>
    </rdf:RDF>
  </metadata>
  <g
     inkscape:label="1. réteg"
     inkscape:groupmode="layer"
     id="layer1"
     transform="translate(-14.901214,-137.42958)">
    <g
       transform="translate(-288.63571,-73.913738)"
       id="layer1-2"
       inkscape:label="Layer 1"
       style="stroke:none">
      <ellipse
         style="fill:#78b451;fill-opacity:1;fill-rule:nonzero;stroke:none;stroke-width:0.26458332"
         cx="401.23767"
         cy="285.49112"
         id="circle7386-8"
         rx="75.751419"
         ry="74.147797" />
      <circle
         style="fill:#8dd35f;fill-opacity:1;stroke:none;stroke-width:0.26458332"
         cx="401.41071"
         cy="285.66071"
         r="67.73333"
         id="circle7386" />
      <path
         sodipodi:nodetypes="ccssscccc"
         inkscape:connector-curvature="0"
         id="rect4500"
         d="m 397.78188,249.64306 v 0.0209 h -10.11184 c -6.67562,0 -12.0498,5.58207 -12.0498,12.51591 v 47.78696 c 0,6.93384 5.37418,12.5159 12.0498,12.5159 12.615,0.002 25.64852,-0.33753 37.69439,-0.33632 v -72.5033 z"
         style="opacity:1;fill:#191967;fill-opacity:1;stroke:none;stroke-width:0.39095739;stroke-opacity:1;paint-order:fill markers stroke" />
      <rect
         y="253.13477"
         x="425.33917"
         height="14.517208"
         width="5.6652517"
         id="rect4514"
         style="opacity:1;fill:#eeffbf;fill-opacity:1;stroke:none;stroke-width:0.35051957;stroke-opacity:1;paint-order:fill markers stroke" />
      <rect
         y="267.65198"
         x="425.33917"
         height="14.517208"
         width="5.6652517"
         id="rect4514-3"
         style="opacity:1;fill:#3796c8;fill-opacity:1;stroke:none;stroke-width:0.35051957;stroke-opacity:1;paint-order:fill markers stroke" />
      <rect
         y="282.16919"
         x="425.33917"
         height="14.517208"
         width="5.6652517"
         id="rect4514-1"
         style="opacity:1;fill:#d17c2e;fill-opacity:1;stroke:none;stroke-width:0.35051957;stroke-opacity:1;paint-order:fill markers stroke" />
      <path
         sodipodi:nodetypes="sssszsszzzs"
         inkscape:connector-curvature="0"
         id="path5228"
         d="m 399.88787,266.71014 c -1.5789,-0.29356 -5.97774,2.53375 -6.98109,3.56981 -1.13147,1.16834 -1.46456,3.63515 -0.84373,5.06829 0.227,0.52401 7.28466,16.52413 8.78123,18.0207 1.11383,1.11383 2.04016,1.65469 3.4437,1.62261 1.40355,-0.0321 7.02348,-2.13228 7.69513,-3.73588 0.56072,-1.33873 -1.77269,-6.00794 -3.16694,-6.3912 -1.19086,-0.32735 -3.56968,2.65243 -4.92516,2.76997 -1.35548,0.11754 -6.1412,-9.46638 -5.5704,-10.79526 0.57081,-1.32888 4.21302,-1.62609 5.00147,-2.84628 0.78846,-1.22018 -2.16011,-7.04587 -3.43421,-7.28276 z"
         style="fill:#d17c2e;fill-opacity:1;stroke:none;stroke-width:0.26458332px;stroke-linecap:butt;stroke-linejoin:miter;stroke-opacity:1" />
      <g
         transform="translate(33.69551,134.82545)"
         id="layer1-8"
         inkscape:label="Layer 1"
         style="stroke:none" />
    </g>
    <path
       style="fill:#78b451;fill-opacity:1;stroke:#78b451;stroke-width:0.44382945;stroke-linecap:butt;stroke-linejoin:miter;stroke-miterlimit:4;stroke-dasharray:none;stroke-opacity:1;filter:url(#filter16090-4-2-3);enable-background:new"
       d="m 439.55273,484.6875 c -1.93764,0.91542 -3.65407,3.05125 -5.32812,4.82812 -0.43664,0.46354 -3.94987,7.06426 -5.34766,8.7793 1.81751,-0.72804 8.02381,-1.81621 8.83789,-1.9668 4.13732,-0.76572 5.56209,-5.09196 7.81641,-7.51562 2.19898,1.65556 4.30765,3.40632 6.31445,5.25391 -3.41815,1.99375 5.58679,3.28917 -3.20969,3.09356 -0.0641,0.95012 0,0 5.58741,4.1356 6.46121,2.99738 2.29974,0.4703 4.09885,-0.50455 1.77541,2.08273 3.43988,4.25578 4.97461,6.53125 -0.61501,-0.25456 -1.1674,-0.40198 -1.54102,-0.27539 -0.39693,0.13441 -16.5947,2.2203 -17.09584,1.92547 0.0767,0.0891 4.72874,9.66755 13.506,8.31476 1.31346,0.068 3.7943,1.75956 5.36523,2.48828 6.10964,2.83428 4.84993,-7.49486 8.33008,9.27344 1.08506,5.22761 -17.97564,-2.99913 -18.76558,-0.74577 -1.57979,4.50693 10.82323,19.69791 16.86714,13.28288 0.25711,-0.27268 3.09088,-0.21037 3.20313,0.33008 -15.1827,10.96917 14.50563,32.76368 10.57617,-1.0625 0.0431,-0.0419 0.0851,-0.0758 0.12695,-0.10743 -0.0629,-0.003 -0.0497,0.002 -0.12109,-0.002 0.1475,-3.61115 0.14788,-7.30368 -0.004,-11.07812 -0.41672,-0.86892 -0.8391,-1.77713 -1.25391,-2.65821 1.35109,-1.33363 2.17993,-2.98541 1.7168,-5.21679 -0.42956,-2.06975 -0.9745,-7.7313 0.63672,-9.44141 0.37074,-0.39349 4.14994,-4.26631 3.98956,-4.09588 -1.21129,1.2857 -6.36152,3.0532 -7.90558,3.57635 -0.26323,0.0892 -2.15406,2.19314 -3.80273,4.02344 -0.58532,-1.15996 -1.17586,-2.32146 -1.80273,-3.49024 -0.12794,-0.30621 -0.31117,-0.62627 -0.50977,-0.94726 -0.71828,-1.3141 -1.47319,-2.63208 -2.26172,-3.95313 -0.006,-0.0583 -0.0132,-0.1165 -0.01,-0.17187 0.0623,-0.92372 4.39388,-3.38611 5.10742,-5.42188 1.99677,-5.6963 -1.92929,-6.53433 -1.57617,-11.76953 0.0611,-0.90483 2.20171,-4.39879 2.15429,-4.62695 -0.87405,-4.21128 -8.60758,7.83857 -10.85351,8.59961 -0.75644,0.25622 -12.78657,-5.42725 -13.07101,-6.79775 -0.42088,-2.02779 5.32565,-5.20638 4.35547,-9.88086 -0.64981,-3.13099 0.32028,-11.06476 0.11366,-12.82315 -0.89611,1.2971 -6.68605,6.35617 -8.21718,7.98136 -4.39471,4.66449 6.36523,12.12506 1.02413,9.64735 -4.08785,-1.8964 -3.04318,-13.96103 -9.32802,-16.87656 -2.06892,-0.95974 -2.75849,-18.00253 -4.47156,-16.18429 -0.68362,0.72558 -5.89985,8.56467 -6.238,9.52925 -0.76045,2.16972 4.65279,12.17316 4.6059,13.72105 -5.38501,-3.12578 -14.03389,3.44765 -20.94593,0.52889 13.93326,12.94952 11.4932,1.58456 24.35255,11.77001 z"
       transform="matrix(0.21161664,0.4875748,-0.57799324,0.22818156,365.93747,-87.665293)"
       id="path21051-7-8-2"
       inkscape:connector-curvature="0"
       sodipodi:nodetypes="cccccccccccccccccccccccccccccccccccccccccccccccc" />
    <path
       style="fill:#78b451;fill-opacity:1;stroke:#78b451;stroke-width:0.44382945;stroke-linecap:butt;stroke-linejoin:miter;stroke-miterlimit:4;stroke-dasharray:none;stroke-opacity:1;filter:url(#filter16090-4-2-3-0);enable-background:new"
       d="m 439.55273,484.6875 c -1.93764,0.91542 -3.65407,3.05125 -5.32812,4.82812 -0.43664,0.46354 -3.94987,7.06426 -5.34766,8.7793 1.81751,-0.72804 8.02381,-1.81621 8.83789,-1.9668 4.13732,-0.76572 5.56209,-5.09196 7.81641,-7.51562 2.19898,1.65556 4.30765,3.40632 6.31445,5.25391 -3.41815,1.99375 5.58679,3.28917 -3.20969,3.09356 -0.0641,0.95012 0,0 5.58741,4.1356 6.46121,2.99738 2.29974,0.4703 4.09885,-0.50455 1.77541,2.08273 3.43988,4.25578 4.97461,6.53125 -0.61501,-0.25456 -1.1674,-0.40198 -1.54102,-0.27539 -0.39693,0.13441 -16.5947,2.2203 -17.09584,1.92547 0.0767,0.0891 4.72874,9.66755 13.506,8.31476 1.31346,0.068 3.7943,1.75956 5.36523,2.48828 6.10964,2.83428 4.84993,-7.49486 8.33008,9.27344 1.08506,5.22761 -17.97564,-2.99913 -18.76558,-0.74577 -1.57979,4.50693 10.82323,19.69791 16.86714,13.28288 0.25711,-0.27268 3.09088,-0.21037 3.20313,0.33008 -15.1827,10.96917 14.50563,32.76368 10.57617,-1.0625 0.0431,-0.0419 0.0851,-0.0758 0.12695,-0.10743 -0.0629,-0.003 -0.0497,0.002 -0.12109,-0.002 0.1475,-3.61115 0.14788,-7.30368 -0.004,-11.07812 -0.41672,-0.86892 -0.8391,-1.77713 -1.25391,-2.65821 1.35109,-1.33363 2.17993,-2.98541 1.7168,-5.21679 -0.42956,-2.06975 -0.9745,-7.7313 0.63672,-9.44141 0.37074,-0.39349 4.14994,-4.26631 3.98956,-4.09588 -1.21129,1.2857 -6.36152,3.0532 -7.90558,3.57635 -0.26323,0.0892 -2.15406,2.19314 -3.80273,4.02344 -0.58532,-1.15996 -1.17586,-2.32146 -1.80273,-3.49024 -0.12794,-0.30621 -0.31117,-0.62627 -0.50977,-0.94726 -0.71828,-1.3141 -1.47319,-2.63208 -2.26172,-3.95313 -0.006,-0.0583 -0.0132,-0.1165 -0.01,-0.17187 0.0623,-0.92372 4.39388,-3.38611 5.10742,-5.42188 1.99677,-5.6963 -1.92929,-6.53433 -1.57617,-11.76953 0.0611,-0.90483 2.20171,-4.39879 2.15429,-4.62695 -0.87405,-4.21128 -8.60758,7.83857 -10.85351,8.59961 -0.75644,0.25622 -12.78657,-5.42725 -13.07101,-6.79775 -0.42088,-2.02779 5.32565,-5.20638 4.35547,-9.88086 -0.64981,-3.13099 0.32028,-11.06476 0.11366,-12.82315 -0.89611,1.2971 -6.68605,6.35617 -8.21718,7.98136 -4.39471,4.66449 6.36523,12.12506 1.02413,9.64735 -4.08785,-1.8964 -3.04318,-13.96103 -9.32802,-16.87656 -2.06892,-0.95974 -2.75849,-18.00253 -4.47156,-16.18429 -0.68362,0.72558 -5.89985,8.56467 -6.238,9.52925 -0.76045,2.16972 4.65279,12.17316 4.6059,13.72105 -5.38501,-3.12578 -14.03389,3.44765 -20.94593,0.52889 13.93326,12.94952 11.4932,1.58456 24.35255,11.77001 z"
       transform="matrix(-0.21161664,0.4875748,0.57799325,0.22818156,-140.686,-87.091389)"
       id="path21051-7-8-2-9"
       inkscape:connector-curvature="0"
       sodipodi:nodetypes="cccccccccccccccccccccccccccccccccccccccccccccccc" />
    <path
       style="fill:#78b451;fill-opacity:1;stroke:#78b451;stroke-width:0.44382945;stroke-linecap:butt;stroke-linejoin:miter;stroke-miterlimit:4;stroke-dasharray:none;stroke-opacity:1;filter:url(#filter16090-4-2-3-2);enable-background:new"
       d="m 439.55273,484.6875 c -1.93764,0.91542 -3.65407,3.05125 -5.32812,4.82812 -0.43664,0.46354 -3.94987,7.06426 -5.34766,8.7793 1.81751,-0.72804 8.02381,-1.81621 8.83789,-1.9668 4.13732,-0.76572 5.56209,-5.09196 7.81641,-7.51562 2.19898,1.65556 4.30765,3.40632 6.31445,5.25391 -3.41815,1.99375 5.58679,3.28917 -3.20969,3.09356 -0.0641,0.95012 0,0 5.58741,4.1356 6.46121,2.99738 2.29974,0.4703 4.09885,-0.50455 1.77541,2.08273 3.43988,4.25578 4.97461,6.53125 -0.61501,-0.25456 -1.1674,-0.40198 -1.54102,-0.27539 -0.39693,0.13441 -16.5947,2.2203 -17.09584,1.92547 0.0767,0.0891 4.72874,9.66755 13.506,8.31476 1.31346,0.068 3.7943,1.75956 5.36523,2.48828 6.10964,2.83428 4.84993,-7.49486 8.33008,9.27344 1.08506,5.22761 -17.97564,-2.99913 -18.76558,-0.74577 -1.57979,4.50693 10.82323,19.69791 16.86714,13.28288 0.25711,-0.27268 3.09088,-0.21037 3.20313,0.33008 -15.1827,10.96917 14.50563,32.76368 10.57617,-1.0625 0.0431,-0.0419 0.0851,-0.0758 0.12695,-0.10743 -0.0629,-0.003 -0.0497,0.002 -0.12109,-0.002 0.1475,-3.61115 0.14788,-7.30368 -0.004,-11.07812 -0.41672,-0.86892 -0.8391,-1.77713 -1.25391,-2.65821 1.35109,-1.33363 2.17993,-2.98541 1.7168,-5.21679 -0.42956,-2.06975 -0.9745,-7.7313 0.63672,-9.44141 0.37074,-0.39349 4.14994,-4.26631 3.98956,-4.09588 -1.21129,1.2857 -6.36152,3.0532 -7.90558,3.57635 -0.26323,0.0892 -2.15406,2.19314 -3.80273,4.02344 -0.58532,-1.15996 -1.17586,-2.32146 -1.80273,-3.49024 -0.12794,-0.30621 -0.31117,-0.62627 -0.50977,-0.94726 -0.71828,-1.3141 -1.47319,-2.63208 -2.26172,-3.95313 -0.006,-0.0583 -0.0132,-0.1165 -0.01,-0.17187 0.0623,-0.92372 4.39388,-3.38611 5.10742,-5.42188 1.99677,-5.6963 -1.92929,-6.53433 -1.57617,-11.76953 0.0611,-0.90483 2.20171,-4.39879 2.15429,-4.62695 -0.87405,-4.21128 -8.60758,7.83857 -10.85351,8.59961 -0.75644,0.25622 -12.78657,-5.42725 -13.07101,-6.79775 -0.42088,-2.02779 5.32565,-5.20638 4.35547,-9.88086 -0.64981,-3.13099 0.32028,-11.06476 0.11366,-12.82315 -0.89611,1.2971 -6.68605,6.35617 -8.21718,7.98136 -4.39471,4.66449 6.36523,12.12506 1.02413,9.64735 -4.08785,-1.8964 -3.04318,-13.96103 -9.32802,-16.87656 -2.06892,-0.95974 -2.75849,-18.00253 -4.47156,-16.18429 -0.68362,0.72558 -5.89985,8.56467 -6.238,9.52925 -0.76045,2.16972 4.65279,12.17316 4.6059,13.72105 -5.38501,-3.12578 -14.03389,3.44765 -20.94593,0.52889 13.93326,12.94952 11.4932,1.58456 24.35255,11.77001 z"
       transform="matrix(0.21161664,-0.4875748,-0.57799325,-0.22818156,366.63207,510.25427)"
       id="path21051-7-8-2-91"
       inkscape:connector-curvature="0"
       sodipodi:nodetypes="cccccccccccccccccccccccccccccccccccccccccccccccc" />
    <path
       style="fill:#78b451;fill-opacity:1;stroke:#78b451;stroke-width:0.44382945;stroke-linecap:butt;stroke-linejoin:miter;stroke-miterlimit:4;stroke-dasharray:none;stroke-opacity:1;filter:url(#filter16090-4-2-3-0-4);enable-background:new"
       d="m 439.55273,484.6875 c -1.93764,0.91542 -3.65407,3.05125 -5.32812,4.82812 -0.43664,0.46354 -3.94987,7.06426 -5.34766,8.7793 1.81751,-0.72804 8.02381,-1.81621 8.83789,-1.9668 4.13732,-0.76572 5.56209,-5.09196 7.81641,-7.51562 2.19898,1.65556 4.30765,3.40632 6.31445,5.25391 -3.41815,1.99375 5.58679,3.28917 -3.20969,3.09356 -0.0641,0.95012 0,0 5.58741,4.1356 6.46121,2.99738 2.29974,0.4703 4.09885,-0.50455 1.77541,2.08273 3.43988,4.25578 4.97461,6.53125 -0.61501,-0.25456 -1.1674,-0.40198 -1.54102,-0.27539 -0.39693,0.13441 -16.5947,2.2203 -17.09584,1.92547 0.0767,0.0891 4.72874,9.66755 13.506,8.31476 1.31346,0.068 3.7943,1.75956 5.36523,2.48828 6.10964,2.83428 4.84993,-7.49486 8.33008,9.27344 1.08506,5.22761 -17.97564,-2.99913 -18.76558,-0.74577 -1.57979,4.50693 10.82323,19.69791 16.86714,13.28288 0.25711,-0.27268 3.09088,-0.21037 3.20313,0.33008 -15.1827,10.96917 14.50563,32.76368 10.57617,-1.0625 0.0431,-0.0419 0.0851,-0.0758 0.12695,-0.10743 -0.0629,-0.003 -0.0497,0.002 -0.12109,-0.002 0.1475,-3.61115 0.14788,-7.30368 -0.004,-11.07812 -0.41672,-0.86892 -0.8391,-1.77713 -1.25391,-2.65821 1.35109,-1.33363 2.17993,-2.98541 1.7168,-5.21679 -0.42956,-2.06975 -0.9745,-7.7313 0.63672,-9.44141 0.37074,-0.39349 4.14994,-4.26631 3.98956,-4.09588 -1.21129,1.2857 -6.36152,3.0532 -7.90558,3.57635 -0.26323,0.0892 -2.15406,2.19314 -3.80273,4.02344 -0.58532,-1.15996 -1.17586,-2.32146 -1.80273,-3.49024 -0.12794,-0.30621 -0.31117,-0.62627 -0.50977,-0.94726 -0.71828,-1.3141 -1.47319,-2.63208 -2.26172,-3.95313 -0.006,-0.0583 -0.0132,-0.1165 -0.01,-0.17187 0.0623,-0.92372 4.39388,-3.38611 5.10742,-5.42188 1.99677,-5.6963 -1.92929,-6.53433 -1.57617,-11.76953 0.0611,-0.90483 2.20171,-4.39879 2.15429,-4.62695 -0.87405,-4.21128 -8.60758,7.83857 -10.85351,8.59961 -0.75644,0.25622 -12.78657,-5.42725 -13.07101,-6.79775 -0.42088,-2.02779 5.32565,-5.20638 4.35547,-9.88086 -0.64981,-3.13099 0.32028,-11.06476 0.11366,-12.82315 -0.89611,1.2971 -6.68605,6.35617 -8.21718,7.98136 -4.39471,4.66449 6.36523,12.12506 1.02413,9.64735 -4.08785,-1.8964 -3.04318,-13.96103 -9.32802,-16.87656 -2.06892,-0.95974 -2.75849,-18.00253 -4.47156,-16.18429 -0.68362,0.72558 -5.89985,8.56467 -6.238,9.52925 -0.76045,2.16972 4.65279,12.17316 4.6059,13.72105 -5.38501,-3.12578 -14.03389,3.44765 -20.94593,0.52889 13.93326,12.94952 11.4932,1.58456 24.35255,11.77001 z"
       transform="matrix(-0.21161664,-0.4875748,0.57799325,-0.22818156,-139.9914,509.68036)"
       id="path21051-7-8-2-9-5"
       inkscape:connector-curvature="0"
       sodipodi:nodetypes="cccccccccccccccccccccccccccccccccccccccccccccccc" />
  </g>
</svg>
