<?xml version="1.0" encoding="UTF-8" standalone="no"?>
<!-- Created with Inkscape (http://www.inkscape.org/) -->

<svg
   xmlns:dc="http://purl.org/dc/elements/1.1/"
   xmlns:cc="http://creativecommons.org/ns#"
   xmlns:rdf="http://www.w3.org/1999/02/22-rdf-syntax-ns#"
   xmlns:svg="http://www.w3.org/2000/svg"
   xmlns:sodipodi="http://sodipodi.sourceforge.net/DTD/sodipodi-0.dtd"
   xmlns:inkscape="http://www.inkscape.org/namespaces/inkscape"
   xmlns="http://www.w3.org/2000/svg"
   width="135.46666mm"
   height="135.46666mm"
   viewBox="0 0 135.46666 135.46666"
   version="1.1"
   id="svg5280"
   inkscape:version="0.92.0 r15299"
   sodipodi:docname="elerhetosegikon.svg">
  <defs
     id="defs5274" />
  <sodipodi:namedview
     id="base"
     pagecolor="#ffffff"
     bordercolor="#666666"
     borderopacity="1.0"
     inkscape:pageopacity="0.0"
     inkscape:pageshadow="2"
     inkscape:zoom="0.7"
     inkscape:cx="205.84449"
     inkscape:cy="167.66124"
     inkscape:document-units="mm"
     inkscape:current-layer="layer1"
     showgrid="false"
     inkscape:window-width="1280"
     inkscape:window-height="962"
     inkscape:window-x="-8"
     inkscape:window-y="-8"
     inkscape:window-maximized="1" />
  <metadata
     id="metadata5277">
    <rdf:RDF>
      <cc:Work
         rdf:about="">
        <dc:format>image/svg+xml</dc:format>
        <dc:type
           rdf:resource="http://purl.org/dc/dcmitype/StillImage" />
        <dc:title></dc:title>
      </cc:Work>
    </rdf:RDF>
  </metadata>
  <g
     inkscape:label="Layer 1"
     inkscape:groupmode="layer"
     id="layer1"
     transform="translate(-84.213097,-72.028572)">
    <circle
       id="circle7386"
       r="67.73333"
       cy="139.7619"
       cx="151.94643"
       style="fill:#8dd35f;fill-opacity:1;stroke-width:0.26458332" />
    <path
       sodipodi:nodetypes="ccccccc"
       inkscape:connector-curvature="0"
       id="path7388"
       d="m 163.45,206.10295 c 26.82157,-3.66672 52.19218,-26.18399 56.03248,-60.8892 -28.37273,-28.76669 -24.47498,-25.24753 -37.94233,-37.97779 l -31.41536,6.97351 22.32819,22.32819 -44.08666,34.48163 z"
       style="fill:#78b451;fill-opacity:1;stroke-width:0.26458332" />
    <path
       style="opacity:1;fill:#000080;fill-opacity:1;stroke:#000080;stroke-width:0.39095739;stroke-opacity:1;paint-order:fill markers stroke"
       d="m 148.31759,103.74425 v 0.0209 h -10.11184 c -6.67562,0 -12.0498,5.58207 -12.0498,12.51591 v 47.78696 c 0,6.93384 5.37418,12.5159 12.0498,12.5159 12.615,0.002 25.64852,-0.33753 37.69439,-0.33632 v -72.5033 z"
       id="rect4500"
       inkscape:connector-curvature="0"
       sodipodi:nodetypes="ccssscccc" />
    <rect
       style="opacity:1;fill:#eeff00;fill-opacity:1;stroke:#eeff00;stroke-width:0.35051957;stroke-opacity:1;paint-order:fill markers stroke"
       id="rect4514"
       width="5.6652517"
       height="14.517208"
       x="176.40407"
       y="107.23596" />
    <rect
       style="opacity:1;fill:#00a7ff;fill-opacity:1;stroke:#00a7ff;stroke-width:0.35051957;stroke-opacity:1;paint-order:fill markers stroke"
       id="rect4514-3"
       width="5.6652517"
       height="14.517208"
       x="176.40407"
       y="121.75317" />
    <rect
       style="opacity:1;fill:#ff7c00;fill-opacity:1;stroke:#ff7c00;stroke-width:0.35051957;stroke-opacity:1;paint-order:fill markers stroke"
       id="rect4514-1"
       width="5.6652517"
       height="14.517208"
       x="176.40407"
       y="136.27039" />
    <path
       style="fill:#f93c18;fill-opacity:1;stroke:#000080;stroke-width:0.26458332px;stroke-linecap:butt;stroke-linejoin:miter;stroke-opacity:1"
       d="m 150.0456,123.45716 c -1.5789,-0.29356 -5.97774,2.53375 -6.98109,3.56981 -1.13147,1.16834 -1.46456,3.63515 -0.84373,5.06829 0.227,0.52401 7.28466,16.52413 8.78123,18.0207 1.11383,1.11383 2.04016,1.65469 3.4437,1.62261 1.40355,-0.0321 7.02348,-2.13228 7.69513,-3.73588 0.56072,-1.33873 -1.77269,-6.00794 -3.16694,-6.3912 -1.19086,-0.32735 -3.56968,2.65243 -4.92516,2.76997 -1.35548,0.11754 -6.1412,-9.46638 -5.5704,-10.79526 0.57081,-1.32888 4.21302,-1.62609 5.00147,-2.84628 0.78846,-1.22018 -2.16011,-7.04587 -3.43421,-7.28276 z"
       id="path5228"
       inkscape:connector-curvature="0"
       sodipodi:nodetypes="sssszsszzzs" />
  </g>
</svg>
