<?xml version="1.0" encoding="UTF-8" standalone="no"?>
<!-- Created with Inkscape (http://www.inkscape.org/) -->

<svg
   xmlns:dc="http://purl.org/dc/elements/1.1/"
   xmlns:cc="http://creativecommons.org/ns#"
   xmlns:rdf="http://www.w3.org/1999/02/22-rdf-syntax-ns#"
   xmlns:svg="http://www.w3.org/2000/svg"
   xmlns="http://www.w3.org/2000/svg"
   xmlns:sodipodi="http://sodipodi.sourceforge.net/DTD/sodipodi-0.dtd"
   xmlns:inkscape="http://www.inkscape.org/namespaces/inkscape"
   width="68.74929mm"
   height="26.75141mm"
   viewBox="0 0 68.749291 26.75141"
   version="1.1"
   id="svg5828"
   inkscape:version="0.92.0 r15299"
   sodipodi:docname="DNS.svg">
  <defs
     id="defs5822">
    <filter
       inkscape:collect="always"
       style="color-interpolation-filters:sRGB"
       id="filter5554-1">
      <feBlend
         inkscape:collect="always"
         mode="overlay"
         in2="BackgroundImage"
         id="feBlend5556-8" />
    </filter>
    <filter
       inkscape:collect="always"
       style="color-interpolation-filters:sRGB"
       id="filter5554-1-5">
      <feBlend
         inkscape:collect="always"
         mode="overlay"
         in2="BackgroundImage"
         id="feBlend5556-8-2" />
    </filter>
    <filter
       inkscape:collect="always"
       style="color-interpolation-filters:sRGB"
       id="filter5554-1-5-6">
      <feBlend
         inkscape:collect="always"
         mode="overlay"
         in2="BackgroundImage"
         id="feBlend5556-8-2-8" />
    </filter>
    <filter
       inkscape:collect="always"
       style="color-interpolation-filters:sRGB"
       id="filter5554-1-5-5">
      <feBlend
         inkscape:collect="always"
         mode="overlay"
         in2="BackgroundImage"
         id="feBlend5556-8-2-6" />
    </filter>
    <filter
       inkscape:collect="always"
       style="color-interpolation-filters:sRGB"
       id="filter5554-1-5-60">
      <feBlend
         inkscape:collect="always"
         mode="overlay"
         in2="BackgroundImage"
         id="feBlend5556-8-2-4" />
    </filter>
    <filter
       inkscape:collect="always"
       style="color-interpolation-filters:sRGB"
       id="filter5554-1-5-3">
      <feBlend
         inkscape:collect="always"
         mode="overlay"
         in2="BackgroundImage"
         id="feBlend5556-8-2-80" />
    </filter>
  </defs>
  <sodipodi:namedview
     id="base"
     pagecolor="#ffffff"
     bordercolor="#666666"
     borderopacity="1.0"
     inkscape:pageopacity="0.0"
     inkscape:pageshadow="2"
     inkscape:zoom="0.98994949"
     inkscape:cx="253.57316"
     inkscape:cy="69.888206"
     inkscape:document-units="mm"
     inkscape:current-layer="layer1"
     showgrid="false"
     fit-margin-top="-0.3"
     fit-margin-left="-7.1"
     fit-margin-right="-7.1"
     fit-margin-bottom="-1.1"
     inkscape:window-width="1366"
     inkscape:window-height="705"
     inkscape:window-x="-8"
     inkscape:window-y="-8"
     inkscape:window-maximized="1">
    <inkscape:grid
       type="xygrid"
       id="grid6450" />
  </sodipodi:namedview>
  <metadata
     id="metadata5825">
    <rdf:RDF>
      <cc:Work
         rdf:about="">
        <dc:format>image/svg+xml</dc:format>
        <dc:type
           rdf:resource="http://purl.org/dc/dcmitype/StillImage" />
        <dc:title></dc:title>
      </cc:Work>
    </rdf:RDF>
  </metadata>
  <g
     inkscape:label="1. réteg"
     inkscape:groupmode="layer"
     id="layer1"
     transform="translate(131.08073,-109.71552)">
    <path
       style="fill:#8dd35f;fill-opacity:1;stroke:none;stroke-width:0.52247208px;stroke-linecap:butt;stroke-linejoin:miter;stroke-opacity:1;filter:url(#filter5554-1-5-60)"
       d="m 26.000002,44.415191 v 13 c 45.372363,43.040049 88.795438,52.189299 132.281148,9.502214 1.37787,-1.341 4.12109,-3.8809 4.12109,-3.8809 26.36237,26.6517 58.63629,49.262245 101.62695,19.7519 11.98909,-9.863556 16.98909,-13.863556 21.98909,-25.863556 -3,-3 -3,-4 -5.17857,-5.508929 -3.63752,4.5569 -11.8397,17.999271 -16.8397,19.999271 0,-6 -2.18504,-34.765386 -0.97668,-37.763486 -0.0948,0.6152 9.58281,1.470572 17.77174,17.907072 1.22321,2.366072 5.22321,5.366072 5.22321,5.366072 V 44.924848 C 254.43366,0.10064758 197.4591,0.80950504 162.31435,41.718105 c -2.49977,2.525 -1.21994,2.177982 -1.8418,1.5098 C 118.14287,-7.5133814 60.479172,2.0516045 26.000002,44.415191 Z M 98.574144,19.245505 c 4.233626,0.1032 9.097946,1.4026 8.912116,2.5547 -2.69912,18.8433 -1.09179,61.0449 -1.09179,61.0449 -3.44717,0.78974 -7.856966,2.20035 -12.845716,1.24999 -0.83795,-11.23759 -0.34375,-15.57459 -0.34375,-30.12699 0,-2.0922 -0.34179,-33.3261 -0.34179,-33.3261 0.85843,-1.0898 3.17076,-1.4585 5.71093,-1.3965 z m -13.55859,0.5957 c 0.23205,0.2392 0.3264,2.1453 0.33789,4.8926 0.0344,8.2418 -0.67969,24.0754 -0.67969,25.3496 0,11.8172 0.164319,22.206386 -0.673751,31.331786 -7,-1 -9.5026,-2.1941 -15,-6 -0.435472,-3.459214 1.357981,-33.152286 1.050711,-49.640386 6.87835,-3.475 14.96484,-5.9336 14.96484,-5.9336 z m 145.259776,0.6933 c 1.81381,0.023 3.04994,0.2889 2.95703,0.8321 -2.69913,17.765 -0.78459,64.912357 -0.78459,64.912357 -3.44717,0.74455 -8.54094,-0.33756 -14.55468,-0.82812 -0.83808,-10.59458 0.37249,-16.827437 0.37249,-30.547137 0,-1.9725 -1.2677,-30.3093 -0.33984,-31.4199 1.57387,-1.8837 8.35921,-3.0002 12.34961,-2.9493 z m -114.98243,1.9844 c 3.31427,1.6286 14.2369,7.5178 13.93946,9.127 -0.99065,16.0698 -1.09375,43.041 -1.09375,43.041 -3.44719,0.6893 -7.51545,4.5414 -13.5293,6.3594 -0.83807,-9.8095 -0.3418,-15.8654 -0.3418,-28.5684 0,-1.8263 0.0975,-28.9307 1.02539,-29.959 z m 127.45313,1.5137 c 3.31414,1.6285 14.60201,5.0217 14.30469,6.6308 -0.99065,16.0698 -1.45703,45.5372 -1.45703,45.5372 -3.44729,0.6893 -7.51946,4.5453 -13.53321,6.3632 -0.83795,-9.8094 -0.33984,-15.8692 -0.33984,-28.5722 0,-1.8263 0.0975,-28.9307 1.02539,-29.959 z m -33.87695,0.4687 c 0.92786,0.9364 0.86718,27.3935 0.86718,29.0567 0,5.7841 0.12327,10.0561 0.14258,13.998 0.019,3.942 -0.42194,8.626429 -0.84151,13.092929 -6.01375,-1.6554 -9.72682,-6.236729 -13.17411,-6.864429 0,0 0.62697,-26.1379 -2.07227,-41.1171 -0.29732,-1.4654 15.07813,-8.1661 15.07813,-8.1661 z m -148.634766,6.3088 c 0,10 0.406937,37.815558 -0.945753,40.813458 0.10543,-0.6151 -18.110552,-6.198958 -26.917942,-20.069458 1.80278,-5.744 14.514795,-15.1836 27.863655,-20.744 z m 75.640616,3.9783 c 6.5148,3.2885 14.05115,13.2167 18.12305,17.7735 -9.49076,12.3559 -18.57015,15.6894 -18.46484,16.3047 -1.35264,-2.9982 1.80733,-27.5818 0.34179,-34.0782 z m 50.39844,0.09 c 0.33334,5.2055 1.54042,20.0855 1.55274,28.4648 0,2.7931 -0.12482,4.8638 -0.46289,5.6133 -1.47904,-0.7789 -6.42638,-1.8553 -19.33399,-14.5898 0,0 -2.57669,-3.0738 -3.92187,-5.5528 -0.0344,-0.064 -0.10249,-0.1571 -0.14063,-0.2246 l -4.09961,-5.832 c 0,0 2.88734,3.6991 4.09961,5.832 l 4.0625,5.7774 c 3.75362,-6.0377 12.2535,-17.7315 18.24414,-19.4883 z"
       id="path6033-8-3"
       inkscape:connector-curvature="0"
       sodipodi:nodetypes="ccccccccccccccccccsccccsccccccccsccccccscccccsccccccccccccccccccccccccccccc"
       transform="matrix(0.26458333,0,0,0.26458333,-137.92371,109.00728)" />
  </g>
</svg>
