<?xml version="1.0" encoding="UTF-8" standalone="no"?>
<!-- Created with Inkscape (http://www.inkscape.org/) -->

<svg
   xmlns:dc="http://purl.org/dc/elements/1.1/"
   xmlns:cc="http://creativecommons.org/ns#"
   xmlns:rdf="http://www.w3.org/1999/02/22-rdf-syntax-ns#"
   xmlns:svg="http://www.w3.org/2000/svg"
   xmlns:sodipodi="http://sodipodi.sourceforge.net/DTD/sodipodi-0.dtd"
   xmlns:inkscape="http://www.inkscape.org/namespaces/inkscape"
   xmlns="http://www.w3.org/2000/svg"
   width="94.093956mm"
   height="65.618408mm"
   viewBox="0 0 94.093956 65.618408"
   version="1.1"
   id="svg16714"
   inkscape:version="0.92.0 r15299"
   sodipodi:docname="flowerpot.svg">
  <defs
     id="defs16708" />
  <sodipodi:namedview
     id="base"
     pagecolor="#ffffff"
     bordercolor="#666666"
     borderopacity="1.0"
     inkscape:pageopacity="0.0"
     inkscape:pageshadow="2"
     inkscape:zoom="0.35"
     inkscape:cx="-322.18466"
     inkscape:cy="-27.425292"
     inkscape:document-units="mm"
     inkscape:current-layer="layer1"
     showgrid="false"
     inkscape:window-width="1366"
     inkscape:window-height="705"
     inkscape:window-x="-8"
     inkscape:window-y="-8"
     inkscape:window-maximized="1" />
  <metadata
     id="metadata16711">
    <rdf:RDF>
      <cc:Work
         rdf:about="">
        <dc:format>image/svg+xml</dc:format>
        <dc:type
           rdf:resource="http://purl.org/dc/dcmitype/StillImage" />
        <dc:title></dc:title>
      </cc:Work>
    </rdf:RDF>
  </metadata>
  <g
     inkscape:label="1. réteg"
     inkscape:groupmode="layer"
     id="layer1"
     transform="translate(-48.203024,-75.958653)">
    <path
       sodipodi:nodetypes="cccccsccccscccccccccscccccccccccccccccccc"
       inkscape:connector-curvature="0"
       id="path16089"
       d="m 48.203024,75.958693 v 4.27939 5.33047 l 2.00567,0.18724 c 1.10343,0.10318 2.08944,0.28777 2.19047,0.41012 0.10109,0.12236 3.29153,11.65891 7.09023,25.636917 8.1315,29.92133 7.54871,27.94794 8.34609,28.26733 0.74019,0.29649 9.058801,1.00992 15.84712,1.35908 5.51284,0.28357 24.108236,0.1345 29.657276,-0.23777 6.43536,-0.43173 11.54584,-0.90036 11.97294,-1.09791 0.22347,-0.10338 3.18935,-12.00672 6.59059,-26.45184 3.40123,-14.445117 5.73918,-27.252907 5.84851,-27.645027 0.17168,-0.61587 0.45573,-0.34475 2.09024,-0.55232 l 2.42722,0.0268 c 0.0621,-0.67915 0,-5.17462 0,-5.17462 v -4.3379 z m 1.81946,0.82232 c 0,0 2.09239,0.43283 2.1258,0.16556 2.52181,0.1466 6.11949,-0.12764 11.88409,0.0128 5.40381,0.21259 13.673279,0.25644 18.37661,0.36174 4.70331,0.10529 8.87898,0.289 9.279261,0.40852 0.470609,0.14046 0.534918,0.22324 0.18194,0.23405 -0.459671,0.014 -0.52773,0.52101 -0.431389,3.21073 0.0628,1.75661 0.287149,3.35008 0.49893,3.54107 0.310919,0.28039 -1.952702,0.33803 -11.759012,0.2984 -6.6792,-0.0269 -15.17293,-0.13405 -18.87555,-0.23777 -3.7026,-0.1037 -7.75546,-0.20373 -9.00634,-0.22287 l -2.27434,-0.0351 v -4.08523 z m 5.16559,9.44661 c 1.26558,0.002 4.14058,0.0691 7.4271,0.17872 4.38204,0.14618 69.583336,-0.5151 74.486806,-0.42781 -4.6473,18.728397 -6.49603,27.030567 -13.2115,52.846697 0.72205,0.21362 -39.866675,0.366 -43.263345,0.19817 -3.858562,-0.19064 -11.482281,-0.0496 -11.731241,-0.24212 -0.22662,-0.17525 -4.63326,-16.01331 -12.361,-44.424717 -1.1968,-4.4001 -2.11145,-8.04872 -2.03198,-8.10822 0.0198,-0.0149 0.26328,-0.0213 0.68516,-0.0208 z"
       style="fill:#d0650b;fill-opacity:1;stroke:none;stroke-width:0.31481057;stroke-opacity:1" />
    <path
       style="opacity:1;fill:#934608;fill-opacity:1;fill-rule:nonzero;stroke:none;stroke-width:0.02;stroke-linecap:round;stroke-linejoin:round;stroke-miterlimit:4;stroke-dasharray:none;stroke-dashoffset:0;stroke-opacity:1"
       d="m 48.794094,76.497523 c 1.0394,-0.0472 44.06513,0.28348 44.06513,0.28348 v 8.64596 l -43.87614,-0.45626 c 0,0 -0.0945,-6.91403 -0.18899,-8.47318 z"
       id="rect16671"
       inkscape:connector-curvature="0"
       sodipodi:nodetypes="ccccc" />
    <path
       style="opacity:1;fill:#934608;fill-opacity:1;fill-rule:nonzero;stroke:none;stroke-width:0.01863448;stroke-linecap:round;stroke-linejoin:round;stroke-miterlimit:4;stroke-dasharray:none;stroke-dashoffset:0;stroke-opacity:1"
       d="m 92.779325,85.895563 -39.103151,-0.046 15.19893,53.075297 c 17.44896,1.68764 28.286941,1.10075 26.019081,1.0535 0.0945,0.18899 -2.11486,-54.082797 -2.11486,-54.082797 z"
       id="rect16673"
       inkscape:connector-curvature="0"
       sodipodi:nodetypes="ccccc" />
    <path
       style="opacity:1;fill:#d0650b;fill-opacity:1;fill-rule:nonzero;stroke:#934608;stroke-width:0.71899998;stroke-linecap:round;stroke-linejoin:round;stroke-miterlimit:4;stroke-dasharray:none;stroke-dashoffset:0;stroke-opacity:1"
       d="m 92.779325,85.895563 44.305575,-0.012 c 0.8018,0 -12.30857,53.753927 -13.32804,53.342567 -22.34284,1.07679 -29.263585,0.41934 -29.196764,0.45275 0.334089,0.29948 -1.780771,-53.783316 -1.780771,-53.783316 z"
       id="rect16673-5"
       inkscape:connector-curvature="0"
       sodipodi:nodetypes="ccccc" />
  </g>
</svg>
