<?xml version="1.0" encoding="UTF-8" standalone="no"?>
<!-- Created with Inkscape (http://www.inkscape.org/) -->

<svg
   xmlns:dc="http://purl.org/dc/elements/1.1/"
   xmlns:cc="http://creativecommons.org/ns#"
   xmlns:rdf="http://www.w3.org/1999/02/22-rdf-syntax-ns#"
   xmlns:svg="http://www.w3.org/2000/svg"
   xmlns="http://www.w3.org/2000/svg"
   xmlns:sodipodi="http://sodipodi.sourceforge.net/DTD/sodipodi-0.dtd"
   xmlns:inkscape="http://www.inkscape.org/namespaces/inkscape"
   width="59.765057mm"
   height="437.10388mm"
   viewBox="0 0 59.765057 437.10388"
   version="1.1"
   id="svg4988"
   inkscape:version="0.92.0 r15299"
   sodipodi:docname="oldal.svg">
  <defs
     id="defs4982" />
  <sodipodi:namedview
     id="base"
     pagecolor="#ffffff"
     bordercolor="#666666"
     borderopacity="1.0"
     inkscape:pageopacity="0.0"
     inkscape:pageshadow="2"
     inkscape:zoom="0.7"
     inkscape:cx="-120.41484"
     inkscape:cy="56.362237"
     inkscape:document-units="mm"
     inkscape:current-layer="g5635"
     showgrid="false"
     inkscape:window-width="1366"
     inkscape:window-height="705"
     inkscape:window-x="-8"
     inkscape:window-y="-8"
     inkscape:window-maximized="1" />
  <metadata
     id="metadata4985">
    <rdf:RDF>
      <cc:Work
         rdf:about="">
        <dc:format>image/svg+xml</dc:format>
        <dc:type
           rdf:resource="http://purl.org/dc/dcmitype/StillImage" />
        <dc:title></dc:title>
      </cc:Work>
    </rdf:RDF>
  </metadata>
  <g
     inkscape:label="1. réteg"
     inkscape:groupmode="layer"
     id="layer1"
     transform="translate(65.100128,367.98315)">
    <g
       transform="translate(-711.66779,-762.60798)"
       id="g5635">
      <path
         inkscape:export-ydpi="96"
         inkscape:export-xdpi="96"
         inkscape:transform-center-y="-2.786562"
         inkscape:transform-center-x="2.4133145"
         inkscape:connector-curvature="0"
         id="path4035-9"
         d="m 649.96505,416.06248 c -0.052,-1.43097 0.12283,-1.7501 1.50001,-2.73678 0.85738,-0.61431 1.52397,-1.16141 1.48125,-1.21581 -0.0427,-0.0545 -1.11715,-0.62174 -2.38768,-1.26089 -2.28987,-1.15183 -4.21863,-3.02682 -3.96919,-3.85843 0.0713,-0.23758 0.81661,-0.74486 1.65629,-1.12731 1.46537,-0.66739 1.53508,-0.79304 1.73443,-3.12763 0.1773,-2.0754 0.34023,-2.44024 1.11111,-2.48641 0.53116,-0.0317 1.63028,0.64575 2.66776,1.6446 0.97044,0.9343 1.98381,1.60546 2.25194,1.49146 0.26815,-0.11392 0.53033,-1.33294 0.58266,-2.70879 0.15723,-4.13468 1.81432,-6.53045 3.55107,-5.13405 0.7159,0.57562 1.13454,0.52606 2.1612,-0.25577 2.16348,-1.64766 3.10453,-0.22429 2.86309,4.33046 -0.14098,2.65944 0.53539,3.42087 2.21988,2.49911 2.9878,-1.63495 4.90502,-0.56308 4.2669,2.38561 -0.34744,1.60549 -0.28111,1.78144 1.2302,3.26235 1.39901,1.3709 1.52453,1.63153 1.01042,2.09814 -0.3227,0.29322 -1.5611,0.70926 -2.75163,0.9249 -2.87507,0.52081 -3.15021,1.18602 -1.40828,3.40484 0.76353,0.97301 1.3106,2.02891 1.21524,2.34684 -0.0954,0.31792 -1.11913,1.08636 -2.27508,1.70755 -1.72063,0.9247 -2.22382,1.38565 -2.77532,2.54235 -0.62601,1.31306 -0.76446,1.39113 -1.9592,1.10543 -1.73293,-0.41441 -3.3051,-2.47539 -3.37599,-4.42569 -0.0312,-0.85773 -0.21493,-1.65487 -0.40836,-1.77139 -0.19344,-0.11655 -1.14179,1.16939 -2.10751,2.8576 -0.9657,1.68823 -2.01591,3.16578 -2.33379,3.28343 -0.78712,0.29135 -1.56401,-0.79731 -1.70411,-2.38808 -0.0971,-1.10242 -0.22893,-1.29921 -0.81507,-1.21696 -0.38456,0.054 -0.81779,0.32265 -0.96273,0.59704 -0.2649,0.50159 -1.18535,0.15806 -1.85214,-0.69132 -0.19713,-0.25109 -0.38492,-1.18546 -0.41729,-2.07638 z"
         style="opacity:1;fill:#8dd35f;fill-opacity:1;stroke:none;stroke-width:0.45832267;stroke-opacity:1;paint-order:fill markers stroke" />
      <g
         transform="translate(-44.185367,446.73691)"
         id="g5591">
        <g
           transform="translate(36.560819,2.6405436)"
           id="g5617">
          <path
             inkscape:export-ydpi="96"
             inkscape:export-xdpi="96"
             inkscape:connector-curvature="0"
             id="path5565"
             d="m 688.2416,227.74497 c 2.34573,-4.33761 2.3777,-4.45846 2.90213,-10.96821 0.50445,-6.26177 1.04489,-8.61434 2.15683,-9.3888 0.43056,-0.29998 0.96031,-0.26776 2.25901,0.13714 1.47446,0.45971 1.83408,0.46187 2.74765,0.0166 1.83481,-0.89432 2.15559,-0.77001 3.73217,1.44626 1.10973,1.56 1.61054,2.07878 2.7086,2.80582 1.83858,1.21737 2.25978,1.87967 2.20004,3.45937 l -0.0494,1.30682 -5.39269,3.8957 c -5.49566,3.9701 -5.93037,4.39751 -5.10437,5.01869 0.9014,0.67788 2.13017,0.24069 7.6923,-2.73692 3.70103,-1.9813 5.46882,-2.18969 7.42005,-0.87471 1.80256,1.21479 1.85999,1.45766 1.12711,4.76638 -0.14924,0.67376 -0.0118,1.30042 0.57927,2.64078 1.01728,2.30697 0.99302,2.87996 -0.14514,3.42688 -0.73103,0.35128 -1.05245,0.78213 -1.89607,2.54151 -1.54234,3.2166 -3.45617,4.57762 -5.83058,4.14641 -1.59233,-0.28918 -2.86001,-1.23029 -6.47783,-4.80913 -3.67168,-3.6321 -5.20267,-4.72163 -7.08817,-5.04428 -1.162,-0.19885 -3.03849,0.0853 -3.75052,0.56787 -0.21985,0.14933 -0.57828,0.26372 -0.79617,0.25468 -0.2714,-0.0113 0.0453,-0.83277 1.00579,-2.60886 z"
             style="opacity:1;fill:#8dd35f;fill-opacity:1;stroke:none;stroke-width:0.25568384;stroke-opacity:1;paint-order:fill markers stroke" />
          <path
             inkscape:export-ydpi="96"
             inkscape:export-xdpi="96"
             style="fill:#8dd35f;fill-opacity:1;stroke:none;stroke-width:0.17505468px;stroke-linecap:butt;stroke-linejoin:miter;stroke-opacity:1"
             d="m 674.80914,372.977 c -1.84211,6.41988 -2.59516,11.25676 -2.87948,8.65815 -2.3015,-21.03508 24.00523,-47.4341 14.40472,-70.94685 -4.4351,-10.86209 -19.03117,-43.01152 -13.96778,-57.80791 4.68441,-17.95903 12.30405,-22.1764 18.6692,-26.7503 -10.52239,11.68808 -18.80922,22.88515 -14.70045,45.27113 6.5867,19.12389 14.79146,35.70037 14.88694,52.84956 0.10405,18.69278 -13.06493,26.36986 -16.41315,48.72622 z"
             id="path5569"
             inkscape:connector-curvature="0"
             sodipodi:nodetypes="csscccsc" />
          <path
             inkscape:export-ydpi="96"
             inkscape:export-xdpi="96"
             style="fill:#8dd35f;fill-opacity:1;stroke:none;stroke-width:0.17505468px;stroke-linecap:butt;stroke-linejoin:miter;stroke-opacity:1"
             d="m 676.73588,118.68429 c 11.75672,-23.616787 -16.07322,-48.431441 -5.28909,-74.843007 4.4351,-10.862088 19.03117,-43.01152329 13.96778,-57.807913 -4.68441,-17.959029 -13.27114,-22.150402 -19.6363,-26.724297 -1.36143,-0.984223 -2.92691,1.715659 -1.32,2.491467 16.78439,8.10345 22.24526,32.3976311 15.5246,51.910476 -6.58669,19.123889 -13.32851,26.543556 -13.42399,43.692744 -0.10405,18.692779 13.81766,38.924172 10.177,61.28053 z"
             id="path5571"
             inkscape:connector-curvature="0"
             sodipodi:nodetypes="csccsssc" />
          <path
             inkscape:connector-curvature="0"
             id="path5573"
             d="m 677.33333,275.83333 c 1.49957,-1.37525 0.55008,-3.64177 1.0359,-5.35533 0.5343,-1.88454 1.4197,-2.97969 2.6396,-4.20541 0.72876,-0.73224 1.059,-2.09953 1.89464,-2.93916 0.26529,-0.26656 1.00226,-1.89662 1.48414,-1.49121 0.10544,0.0888 -0.43327,2.77207 -0.33081,3.20872 0.25968,1.10662 -0.1026,5.1106 -0.88392,6.18061 -0.77476,1.06102 -1.98169,2.3589 -3.14688,2.93177 -1.1874,0.5838 -0.6917,1.64369 -2.47035,1.90686"
             style="fill:#8dd35f;fill-opacity:1;stroke:none;stroke-width:0.2466795px;stroke-linecap:butt;stroke-linejoin:miter;stroke-opacity:1"
             inkscape:export-xdpi="96"
             inkscape:export-ydpi="96" />
          <path
             inkscape:export-ydpi="96"
             inkscape:export-xdpi="96"
             style="fill:#8dd35f;fill-opacity:1;stroke:none;stroke-width:0.2466795px;stroke-linecap:butt;stroke-linejoin:miter;stroke-opacity:1"
             d="m 682.97619,346.92365 c -1.49957,-1.37525 -0.55008,-3.64177 -1.0359,-5.35533 -0.5343,-1.88454 -1.4197,-2.97969 -2.6396,-4.20541 -0.72876,-0.73224 -1.059,-2.09953 -1.89464,-2.93916 -0.26529,-0.26656 -1.00226,-1.89662 -1.48414,-1.49121 -0.10543,0.0888 0.43327,2.77207 0.33081,3.20872 -0.25968,1.10662 0.1026,5.1106 0.88392,6.18061 0.77476,1.06102 1.98169,2.3589 3.14688,2.93177 1.1874,0.5838 0.6917,1.64369 2.47035,1.90686"
             id="path5575"
             inkscape:connector-curvature="0" />
          <path
             inkscape:export-ydpi="96"
             inkscape:export-xdpi="96"
             style="fill:#8dd35f;fill-opacity:1;stroke:none;stroke-width:0.2466795px;stroke-linecap:butt;stroke-linejoin:miter;stroke-opacity:1"
             d="m 680.3041,153.66164 c 1.26009,-1.59756 -0.04,-3.68287 0.16528,-5.4521 0.22574,-1.94577 0.92441,-3.16853 1.93238,-4.57371 0.60215,-0.83946 0.70926,-2.24198 1.39972,-3.20455 0.2192,-0.30559 0.68573,-2.0326 1.2263,-1.70955 0.11828,0.0707 0.016,2.80568 0.18709,3.2203 0.43347,1.05077 0.7168,5.06112 0.11684,6.24239 -0.59492,1.17137 -1.57854,2.64571 -2.63699,3.39771 -1.07865,0.76635 -0.41967,1.73322 -2.13326,2.27771"
             id="path5577"
             inkscape:connector-curvature="0" />
          <path
             inkscape:export-ydpi="96"
             inkscape:export-xdpi="96"
             sodipodi:nodetypes="cccsccccccccccccsccsccccscccccccssscc"
             inkscape:connector-curvature="0"
             style="fill:#8dd35f;fill-opacity:1;stroke:none;stroke-width:0.26458332px;stroke-linecap:butt;stroke-linejoin:miter;stroke-opacity:1"
             d="m 686.54673,79.086503 c -1.81536,-0.0735 -3.99413,1.74163 -4.44314,2.27221 -2.16048,2.2941 -2.01897,4.99713 1.20251,8.21862 2.2352,2.2352 9.61544,-0.2806 7.48378,-4.54391 -1.10348,-2.20695 -4.33648,-2.34529 -5.88026,-0.8015 -0.72648,0.72647 0.66913,2.80508 1.33635,2.13786 -0.29849,-1.43876 2.90664,-3.26316 3.64164,-0.23358 0.0598,0.24631 0.0946,0.84079 -1.23611,2.37195 -1.56895,1.56895 -5.4299,-0.0591 -6.14691,-2.13837 -0.58319,-1.69119 -0.94219,-3.28759 2.23811,-4.87774 1.72197,-0.86098 4.17433,-0.24878 5.74694,1.46399 2.50276,2.72583 3.59676,7.77816 2.17092,10.62984 -1.54848,3.09695 -3.96059,6.09897 -6.14743,8.285797 -4.11695,4.02778 -6.01583,5.94386 -9.40872,10.25416 -0.50622,-4.75128 -2.75334,-7.98316 -7.96333,-9.71982 -20.40304,-6.801007 -17.35397,23.4438 -3.34089,16.43724 3.56391,-1.78193 7.15105,-7.71657 2.00454,-10.28982 -3.023,-1.51149 -5.70129,1.42664 -4.41008,4.00906 0.81091,1.62183 3.99965,-4.16122 4.81057,-2.53938 1.85714,3.71428 -1.56956,6.81561 -5.21158,6.81561 -8.67851,0 -7.40552,-8.5916 -1.33635,-11.62617 8.80808,-4.40404 11.2389,3.03204 14.12265,8.67441 -2.18462,2.8916 -3.96262,4.95609 -5.57019,10.16785 -3.9237,10.99053 2.00725,19.43432 5.88025,29.39977 3.85572,9.88482 12.39118,13.61332 11.09131,26.99421 -0.23637,2.4332 -1.55929,6.40195 -6.74843,13.56403 -12.96928,21.78803 -13.35795,31.08632 -4.84258,50.44705 3.39089,-2.16281 0.74505,-0.83989 3.39089,-2.16281 -1.32292,-3.96875 -1.52316,-3.39644 -2.71009,-7.47509 -7.09443,-16.52653 2.63551,-31.09182 8.37135,-37.26776 4.49503,-6.55984 9.77623,-16.42254 6.76134,-24.60522 -1.9491,-7.41878 -6.62751,-12.02685 -9.70121,-18.15806 -3.85867,-7.71732 -6.61775,-13.11141 -8.01812,-22.718 -1.46998,-10.08416 7.13863,-17.92133 11.22516,-22.98516 3.95118,-4.89612 8.80093,-7.80439 10.69082,-14.967047 0.96083,-3.64154 -1.29576,-9.90244 -4.91082,-12.9961 -1.16923,-1.00061 -2.69044,-1.96595 -4.14289,-2.03812 z"
             id="path5579" />
          <path
             inkscape:export-ydpi="96"
             inkscape:export-xdpi="96"
             style="fill:#8dd35f;fill-opacity:1;stroke:none;stroke-width:0.2466795px;stroke-linecap:butt;stroke-linejoin:miter;stroke-opacity:1"
             d="m 680.3041,195.99497 c -1.06758,-1.73213 0.46413,-3.65373 0.46413,-5.43483 0,-1.95881 -0.5531,-3.25394 -1.39241,-4.76592 -0.5014,-0.90326 -0.44616,-2.30878 -1.0211,-3.34451 -0.18253,-0.32881 -0.44692,-2.09808 -1.02111,-1.83948 -0.12565,0.0566 -0.33928,2.78513 -0.55697,3.17728 -0.55167,0.99382 -1.29528,4.9448 -0.83545,6.18734 0.45598,1.23212 1.26313,2.80999 2.22787,3.67896 0.98314,0.88555 0.21713,1.77004 1.85655,2.50838"
             id="path5581"
             inkscape:connector-curvature="0" />
          <path
             inkscape:export-ydpi="96"
             inkscape:export-xdpi="96"
             style="fill:#8dd35f;fill-opacity:1;stroke:none;stroke-width:0.2466795px;stroke-linecap:butt;stroke-linejoin:miter;stroke-opacity:1"
             d="m 678.15431,19.412725 c -1.06758,-1.732131 0.46413,-3.653726 0.46413,-5.434824 0,-1.958812 -0.5531,-3.253944 -1.39241,-4.7659254 -0.5014,-0.9032602 -0.44616,-2.308777 -1.0211,-3.3445075 -0.18253,-0.328809 -0.44692,-2.0980773 -1.02111,-1.8394809 -0.12565,0.05663 -0.33928,2.7851341 -0.55697,3.1772804 -0.55167,0.9938242 -1.29527,4.9447964 -0.83545,6.1873424 0.45598,1.232122 1.26313,2.80999 2.22787,3.678962 0.98314,0.885546 0.21713,1.770038 1.85655,2.508381"
             id="path5583"
             inkscape:connector-curvature="0" />
          <path
             inkscape:export-ydpi="96"
             inkscape:export-xdpi="96"
             style="fill:#8dd35f;fill-opacity:1;stroke:none;stroke-width:0.2466795px;stroke-linecap:butt;stroke-linejoin:miter;stroke-opacity:1"
             d="m 671.51092,74.553688 c 1.06758,-1.732131 -0.46413,-3.653726 -0.46413,-5.434824 0,-1.958812 0.5531,-3.253944 1.39241,-4.765925 0.5014,-0.903261 0.44617,-2.308777 1.02111,-3.344508 0.18252,-0.328809 0.44691,-2.098077 1.02111,-1.839481 0.12564,0.05663 0.33928,2.785134 0.55696,3.177281 0.55167,0.993824 1.29528,4.944796 0.83545,6.187342 -0.45597,1.232122 -1.26313,2.80999 -2.22787,3.678962 -0.98314,0.885546 -0.21713,1.770038 -1.85655,2.508381"
             id="path5585"
             inkscape:connector-curvature="0" />
          <path
             inkscape:export-ydpi="96"
             inkscape:export-xdpi="96"
             inkscape:connector-curvature="0"
             id="path5587"
             d="m 685.68861,-29.022171 c -0.69623,-0.486162 -2.19249,-0.174294 -2.85485,-0.891982 -1.57056,-1.70177 -0.20862,-5.034187 1.75053,-6.541765 0.90487,-0.696302 1.41722,-2.127621 2.56788,-2.537553 0.35996,-0.12826 1.52866,2.979665 1.74131,3.293204 0.26069,0.384387 0.69057,-0.882377 1.15497,-0.888744 1.2878,-0.01766 2.61464,-0.122004 3.74462,-0.284115 1.11655,-0.160168 2.56264,0.518815 3.50018,0.184802 0.036,-0.01288 1.19311,-0.06892 1.22334,0.04142 0.17106,0.624317 -1.84999,3.548568 -2.20011,4.220154 -0.51665,0.991021 -1.88324,4.534442 -2.91381,3.997171 -0.11465,-0.05977 -0.35191,0.07675 -0.38742,-0.05288 -0.10615,-0.387488 2.27639,2.253286 1.99923,2.53314 -2.13019,2.151132 -5.59112,0.862596 -7.40014,2.25464 -0.74078,0.570038 -3.5154,-3.472382 -1.92573,-5.327487 z"
             style="fill:#8dd35f;fill-opacity:1;stroke:none;stroke-width:0.04579796px;stroke-linecap:butt;stroke-linejoin:miter;stroke-opacity:1" />
          <path
             inkscape:export-ydpi="96"
             inkscape:export-xdpi="96"
             sodipodi:nodetypes="cscc"
             inkscape:connector-curvature="0"
             id="path5589"
             d="m 680.6773,-22.702418 c -1.41801,-2.149512 5.32128,-7.143565 5.01134,-6.319747 0,0 -1.33423,1.970591 -2.29654,3.194724 -1.0622,1.380139 -1.27036,1.334714 -2.7148,3.125023 z"
             style="fill:#8dd35f;fill-opacity:1;stroke:none;stroke-width:0.19799203px;stroke-linecap:butt;stroke-linejoin:miter;stroke-opacity:1" />
        </g>
      </g>
    </g>
  </g>
</svg>
