<?xml version="1.0" encoding="UTF-8" standalone="no"?>
<!-- Created with Inkscape (http://www.inkscape.org/) -->

<svg
   xmlns:dc="http://purl.org/dc/elements/1.1/"
   xmlns:cc="http://creativecommons.org/ns#"
   xmlns:rdf="http://www.w3.org/1999/02/22-rdf-syntax-ns#"
   xmlns:svg="http://www.w3.org/2000/svg"
   xmlns:sodipodi="http://sodipodi.sourceforge.net/DTD/sodipodi-0.dtd"
   xmlns:inkscape="http://www.inkscape.org/namespaces/inkscape"
   xmlns="http://www.w3.org/2000/svg"
   width="196.14365mm"
   height="148.29559mm"
   viewBox="0 0 196.14365 148.29559"
   version="1.1"
   id="svg24597"
   inkscape:version="0.92.0 r15299"
   sodipodi:docname="wedding.svg">
  <defs
     id="defs24591">
    <filter
       inkscape:collect="always"
       style="color-interpolation-filters:sRGB"
       id="filter16090-4-2-3"
       x="-0.0024150377"
       width="1.0048301"
       y="-0.0070679709"
       height="1.014136">
      <feGaussianBlur
         inkscape:collect="always"
         stdDeviation="0.21486375"
         id="feGaussianBlur16092-2-4-3" />
    </filter>
    <filter
       inkscape:collect="always"
       style="color-interpolation-filters:sRGB"
       id="filter16090-4-2-3-0"
       x="-0.0024150377"
       width="1.0048301"
       y="-0.0070679709"
       height="1.014136">
      <feGaussianBlur
         inkscape:collect="always"
         stdDeviation="0.21486375"
         id="feGaussianBlur16092-2-4-3-1" />
    </filter>
    <filter
       inkscape:collect="always"
       style="color-interpolation-filters:sRGB"
       id="filter16090-4-2-3-2"
       x="-0.0024150377"
       width="1.0048301"
       y="-0.0070679709"
       height="1.014136">
      <feGaussianBlur
         inkscape:collect="always"
         stdDeviation="0.21486375"
         id="feGaussianBlur16092-2-4-3-6" />
    </filter>
    <filter
       inkscape:collect="always"
       style="color-interpolation-filters:sRGB"
       id="filter16090-4-2-3-0-4"
       x="-0.0024150377"
       width="1.0048301"
       y="-0.0070679709"
       height="1.014136">
      <feGaussianBlur
         inkscape:collect="always"
         stdDeviation="0.21486375"
         id="feGaussianBlur16092-2-4-3-1-4" />
    </filter>
  </defs>
  <sodipodi:namedview
     id="base"
     pagecolor="#ffffff"
     bordercolor="#666666"
     borderopacity="1.0"
     inkscape:pageopacity="0.0"
     inkscape:pageshadow="2"
     inkscape:zoom="0.49497475"
     inkscape:cx="106.83288"
     inkscape:cy="261.84632"
     inkscape:document-units="mm"
     inkscape:current-layer="layer1"
     showgrid="false"
     inkscape:window-width="1366"
     inkscape:window-height="705"
     inkscape:window-x="-8"
     inkscape:window-y="-8"
     inkscape:window-maximized="1">
    <inkscape:grid
       type="xygrid"
       id="grid25387"
       originx="15.498796"
       originy="4.753906e-006" />
  </sodipodi:namedview>
  <metadata
     id="metadata24594">
    <rdf:RDF>
      <cc:Work
         rdf:about="">
        <dc:format>image/svg+xml</dc:format>
        <dc:type
           rdf:resource="http://purl.org/dc/dcmitype/StillImage" />
        <dc:title />
      </cc:Work>
    </rdf:RDF>
  </metadata>
  <g
     inkscape:label="1. réteg"
     inkscape:groupmode="layer"
     id="layer1"
     transform="translate(-14.901214,-137.42958)">
    <g
       transform="translate(-288.63571,-73.913738)"
       id="layer1-2"
       inkscape:label="Layer 1"
       style="stroke:none">
      <ellipse
         style="fill:#78b451;fill-opacity:1;fill-rule:nonzero;stroke:none;stroke-width:0.26458332"
         cx="401.23767"
         cy="285.49112"
         id="circle7386-8"
         rx="75.751419"
         ry="74.147797" />
      <circle
         style="fill:#8dd35f;fill-opacity:1;stroke:none;stroke-width:0.26458332"
         cx="401.41071"
         cy="285.66071"
         r="67.73333"
         id="circle7386" />
      <g
         transform="translate(33.69551,134.82545)"
         id="layer1-8"
         inkscape:label="Layer 1"
         style="stroke:none" />
    </g>
    <path
       style="fill:#78b451;fill-opacity:1;stroke:#78b451;stroke-width:0.44382945;stroke-linecap:butt;stroke-linejoin:miter;stroke-miterlimit:4;stroke-dasharray:none;stroke-opacity:1;filter:url(#filter16090-4-2-3);enable-background:new"
       d="m 439.55273,484.6875 c -1.93764,0.91542 -3.65407,3.05125 -5.32812,4.82812 -0.43664,0.46354 -3.94987,7.06426 -5.34766,8.7793 1.81751,-0.72804 8.02381,-1.81621 8.83789,-1.9668 4.13732,-0.76572 5.56209,-5.09196 7.81641,-7.51562 2.19898,1.65556 4.30765,3.40632 6.31445,5.25391 -3.41815,1.99375 5.58679,3.28917 -3.20969,3.09356 -0.0641,0.95012 0,0 5.58741,4.1356 6.46121,2.99738 2.29974,0.4703 4.09885,-0.50455 1.77541,2.08273 3.43988,4.25578 4.97461,6.53125 -0.61501,-0.25456 -1.1674,-0.40198 -1.54102,-0.27539 -0.39693,0.13441 -16.5947,2.2203 -17.09584,1.92547 0.0767,0.0891 4.72874,9.66755 13.506,8.31476 1.31346,0.068 3.7943,1.75956 5.36523,2.48828 6.10964,2.83428 4.84993,-7.49486 8.33008,9.27344 1.08506,5.22761 -17.97564,-2.99913 -18.76558,-0.74577 -1.57979,4.50693 10.82323,19.69791 16.86714,13.28288 0.25711,-0.27268 3.09088,-0.21037 3.20313,0.33008 -15.1827,10.96917 14.50563,32.76368 10.57617,-1.0625 0.0431,-0.0419 0.0851,-0.0758 0.12695,-0.10743 -0.0629,-0.003 -0.0497,0.002 -0.12109,-0.002 0.1475,-3.61115 0.14788,-7.30368 -0.004,-11.07812 -0.41672,-0.86892 -0.8391,-1.77713 -1.25391,-2.65821 1.35109,-1.33363 2.17993,-2.98541 1.7168,-5.21679 -0.42956,-2.06975 -0.9745,-7.7313 0.63672,-9.44141 0.37074,-0.39349 4.14994,-4.26631 3.98956,-4.09588 -1.21129,1.2857 -6.36152,3.0532 -7.90558,3.57635 -0.26323,0.0892 -2.15406,2.19314 -3.80273,4.02344 -0.58532,-1.15996 -1.17586,-2.32146 -1.80273,-3.49024 -0.12794,-0.30621 -0.31117,-0.62627 -0.50977,-0.94726 -0.71828,-1.3141 -1.47319,-2.63208 -2.26172,-3.95313 -0.006,-0.0583 -0.0132,-0.1165 -0.01,-0.17187 0.0623,-0.92372 4.39388,-3.38611 5.10742,-5.42188 1.99677,-5.6963 -1.92929,-6.53433 -1.57617,-11.76953 0.0611,-0.90483 2.20171,-4.39879 2.15429,-4.62695 -0.87405,-4.21128 -8.60758,7.83857 -10.85351,8.59961 -0.75644,0.25622 -12.78657,-5.42725 -13.07101,-6.79775 -0.42088,-2.02779 5.32565,-5.20638 4.35547,-9.88086 -0.64981,-3.13099 0.32028,-11.06476 0.11366,-12.82315 -0.89611,1.2971 -6.68605,6.35617 -8.21718,7.98136 -4.39471,4.66449 6.36523,12.12506 1.02413,9.64735 -4.08785,-1.8964 -3.04318,-13.96103 -9.32802,-16.87656 -2.06892,-0.95974 -2.75849,-18.00253 -4.47156,-16.18429 -0.68362,0.72558 -5.89985,8.56467 -6.238,9.52925 -0.76045,2.16972 4.65279,12.17316 4.6059,13.72105 -5.38501,-3.12578 -14.03389,3.44765 -20.94593,0.52889 13.93326,12.94952 11.4932,1.58456 24.35255,11.77001 z"
       transform="matrix(0.21161664,0.4875748,-0.57799324,0.22818156,365.93747,-87.665293)"
       id="path21051-7-8-2"
       inkscape:connector-curvature="0"
       sodipodi:nodetypes="cccccccccccccccccccccccccccccccccccccccccccccccc" />
    <path
       style="fill:#78b451;fill-opacity:1;stroke:#78b451;stroke-width:0.44382945;stroke-linecap:butt;stroke-linejoin:miter;stroke-miterlimit:4;stroke-dasharray:none;stroke-opacity:1;filter:url(#filter16090-4-2-3-0);enable-background:new"
       d="m 439.55273,484.6875 c -1.93764,0.91542 -3.65407,3.05125 -5.32812,4.82812 -0.43664,0.46354 -3.94987,7.06426 -5.34766,8.7793 1.81751,-0.72804 8.02381,-1.81621 8.83789,-1.9668 4.13732,-0.76572 5.56209,-5.09196 7.81641,-7.51562 2.19898,1.65556 4.30765,3.40632 6.31445,5.25391 -3.41815,1.99375 5.58679,3.28917 -3.20969,3.09356 -0.0641,0.95012 0,0 5.58741,4.1356 6.46121,2.99738 2.29974,0.4703 4.09885,-0.50455 1.77541,2.08273 3.43988,4.25578 4.97461,6.53125 -0.61501,-0.25456 -1.1674,-0.40198 -1.54102,-0.27539 -0.39693,0.13441 -16.5947,2.2203 -17.09584,1.92547 0.0767,0.0891 4.72874,9.66755 13.506,8.31476 1.31346,0.068 3.7943,1.75956 5.36523,2.48828 6.10964,2.83428 4.84993,-7.49486 8.33008,9.27344 1.08506,5.22761 -17.97564,-2.99913 -18.76558,-0.74577 -1.57979,4.50693 10.82323,19.69791 16.86714,13.28288 0.25711,-0.27268 3.09088,-0.21037 3.20313,0.33008 -15.1827,10.96917 14.50563,32.76368 10.57617,-1.0625 0.0431,-0.0419 0.0851,-0.0758 0.12695,-0.10743 -0.0629,-0.003 -0.0497,0.002 -0.12109,-0.002 0.1475,-3.61115 0.14788,-7.30368 -0.004,-11.07812 -0.41672,-0.86892 -0.8391,-1.77713 -1.25391,-2.65821 1.35109,-1.33363 2.17993,-2.98541 1.7168,-5.21679 -0.42956,-2.06975 -0.9745,-7.7313 0.63672,-9.44141 0.37074,-0.39349 4.14994,-4.26631 3.98956,-4.09588 -1.21129,1.2857 -6.36152,3.0532 -7.90558,3.57635 -0.26323,0.0892 -2.15406,2.19314 -3.80273,4.02344 -0.58532,-1.15996 -1.17586,-2.32146 -1.80273,-3.49024 -0.12794,-0.30621 -0.31117,-0.62627 -0.50977,-0.94726 -0.71828,-1.3141 -1.47319,-2.63208 -2.26172,-3.95313 -0.006,-0.0583 -0.0132,-0.1165 -0.01,-0.17187 0.0623,-0.92372 4.39388,-3.38611 5.10742,-5.42188 1.99677,-5.6963 -1.92929,-6.53433 -1.57617,-11.76953 0.0611,-0.90483 2.20171,-4.39879 2.15429,-4.62695 -0.87405,-4.21128 -8.60758,7.83857 -10.85351,8.59961 -0.75644,0.25622 -12.78657,-5.42725 -13.07101,-6.79775 -0.42088,-2.02779 5.32565,-5.20638 4.35547,-9.88086 -0.64981,-3.13099 0.32028,-11.06476 0.11366,-12.82315 -0.89611,1.2971 -6.68605,6.35617 -8.21718,7.98136 -4.39471,4.66449 6.36523,12.12506 1.02413,9.64735 -4.08785,-1.8964 -3.04318,-13.96103 -9.32802,-16.87656 -2.06892,-0.95974 -2.75849,-18.00253 -4.47156,-16.18429 -0.68362,0.72558 -5.89985,8.56467 -6.238,9.52925 -0.76045,2.16972 4.65279,12.17316 4.6059,13.72105 -5.38501,-3.12578 -14.03389,3.44765 -20.94593,0.52889 13.93326,12.94952 11.4932,1.58456 24.35255,11.77001 z"
       transform="matrix(-0.21161664,0.4875748,0.57799325,0.22818156,-140.686,-87.091389)"
       id="path21051-7-8-2-9"
       inkscape:connector-curvature="0"
       sodipodi:nodetypes="cccccccccccccccccccccccccccccccccccccccccccccccc" />
    <path
       style="fill:#78b451;fill-opacity:1;stroke:#78b451;stroke-width:0.44382945;stroke-linecap:butt;stroke-linejoin:miter;stroke-miterlimit:4;stroke-dasharray:none;stroke-opacity:1;filter:url(#filter16090-4-2-3-2);enable-background:new"
       d="m 439.55273,484.6875 c -1.93764,0.91542 -3.65407,3.05125 -5.32812,4.82812 -0.43664,0.46354 -3.94987,7.06426 -5.34766,8.7793 1.81751,-0.72804 8.02381,-1.81621 8.83789,-1.9668 4.13732,-0.76572 5.56209,-5.09196 7.81641,-7.51562 2.19898,1.65556 4.30765,3.40632 6.31445,5.25391 -3.41815,1.99375 5.58679,3.28917 -3.20969,3.09356 -0.0641,0.95012 0,0 5.58741,4.1356 6.46121,2.99738 2.29974,0.4703 4.09885,-0.50455 1.77541,2.08273 3.43988,4.25578 4.97461,6.53125 -0.61501,-0.25456 -1.1674,-0.40198 -1.54102,-0.27539 -0.39693,0.13441 -16.5947,2.2203 -17.09584,1.92547 0.0767,0.0891 4.72874,9.66755 13.506,8.31476 1.31346,0.068 3.7943,1.75956 5.36523,2.48828 6.10964,2.83428 4.84993,-7.49486 8.33008,9.27344 1.08506,5.22761 -17.97564,-2.99913 -18.76558,-0.74577 -1.57979,4.50693 10.82323,19.69791 16.86714,13.28288 0.25711,-0.27268 3.09088,-0.21037 3.20313,0.33008 -15.1827,10.96917 14.50563,32.76368 10.57617,-1.0625 0.0431,-0.0419 0.0851,-0.0758 0.12695,-0.10743 -0.0629,-0.003 -0.0497,0.002 -0.12109,-0.002 0.1475,-3.61115 0.14788,-7.30368 -0.004,-11.07812 -0.41672,-0.86892 -0.8391,-1.77713 -1.25391,-2.65821 1.35109,-1.33363 2.17993,-2.98541 1.7168,-5.21679 -0.42956,-2.06975 -0.9745,-7.7313 0.63672,-9.44141 0.37074,-0.39349 4.14994,-4.26631 3.98956,-4.09588 -1.21129,1.2857 -6.36152,3.0532 -7.90558,3.57635 -0.26323,0.0892 -2.15406,2.19314 -3.80273,4.02344 -0.58532,-1.15996 -1.17586,-2.32146 -1.80273,-3.49024 -0.12794,-0.30621 -0.31117,-0.62627 -0.50977,-0.94726 -0.71828,-1.3141 -1.47319,-2.63208 -2.26172,-3.95313 -0.006,-0.0583 -0.0132,-0.1165 -0.01,-0.17187 0.0623,-0.92372 4.39388,-3.38611 5.10742,-5.42188 1.99677,-5.6963 -1.92929,-6.53433 -1.57617,-11.76953 0.0611,-0.90483 2.20171,-4.39879 2.15429,-4.62695 -0.87405,-4.21128 -8.60758,7.83857 -10.85351,8.59961 -0.75644,0.25622 -12.78657,-5.42725 -13.07101,-6.79775 -0.42088,-2.02779 5.32565,-5.20638 4.35547,-9.88086 -0.64981,-3.13099 0.32028,-11.06476 0.11366,-12.82315 -0.89611,1.2971 -6.68605,6.35617 -8.21718,7.98136 -4.39471,4.66449 6.36523,12.12506 1.02413,9.64735 -4.08785,-1.8964 -3.04318,-13.96103 -9.32802,-16.87656 -2.06892,-0.95974 -2.75849,-18.00253 -4.47156,-16.18429 -0.68362,0.72558 -5.89985,8.56467 -6.238,9.52925 -0.76045,2.16972 4.65279,12.17316 4.6059,13.72105 -5.38501,-3.12578 -14.03389,3.44765 -20.94593,0.52889 13.93326,12.94952 11.4932,1.58456 24.35255,11.77001 z"
       transform="matrix(0.21161664,-0.4875748,-0.57799325,-0.22818156,366.63207,510.25427)"
       id="path21051-7-8-2-91"
       inkscape:connector-curvature="0"
       sodipodi:nodetypes="cccccccccccccccccccccccccccccccccccccccccccccccc" />
    <path
       style="fill:#78b451;fill-opacity:1;stroke:#78b451;stroke-width:0.44382945;stroke-linecap:butt;stroke-linejoin:miter;stroke-miterlimit:4;stroke-dasharray:none;stroke-opacity:1;filter:url(#filter16090-4-2-3-0-4);enable-background:new"
       d="m 439.55273,484.6875 c -1.93764,0.91542 -3.65407,3.05125 -5.32812,4.82812 -0.43664,0.46354 -3.94987,7.06426 -5.34766,8.7793 1.81751,-0.72804 8.02381,-1.81621 8.83789,-1.9668 4.13732,-0.76572 5.56209,-5.09196 7.81641,-7.51562 2.19898,1.65556 4.30765,3.40632 6.31445,5.25391 -3.41815,1.99375 5.58679,3.28917 -3.20969,3.09356 -0.0641,0.95012 0,0 5.58741,4.1356 6.46121,2.99738 2.29974,0.4703 4.09885,-0.50455 1.77541,2.08273 3.43988,4.25578 4.97461,6.53125 -0.61501,-0.25456 -1.1674,-0.40198 -1.54102,-0.27539 -0.39693,0.13441 -16.5947,2.2203 -17.09584,1.92547 0.0767,0.0891 4.72874,9.66755 13.506,8.31476 1.31346,0.068 3.7943,1.75956 5.36523,2.48828 6.10964,2.83428 4.84993,-7.49486 8.33008,9.27344 1.08506,5.22761 -17.97564,-2.99913 -18.76558,-0.74577 -1.57979,4.50693 10.82323,19.69791 16.86714,13.28288 0.25711,-0.27268 3.09088,-0.21037 3.20313,0.33008 -15.1827,10.96917 14.50563,32.76368 10.57617,-1.0625 0.0431,-0.0419 0.0851,-0.0758 0.12695,-0.10743 -0.0629,-0.003 -0.0497,0.002 -0.12109,-0.002 0.1475,-3.61115 0.14788,-7.30368 -0.004,-11.07812 -0.41672,-0.86892 -0.8391,-1.77713 -1.25391,-2.65821 1.35109,-1.33363 2.17993,-2.98541 1.7168,-5.21679 -0.42956,-2.06975 -0.9745,-7.7313 0.63672,-9.44141 0.37074,-0.39349 4.14994,-4.26631 3.98956,-4.09588 -1.21129,1.2857 -6.36152,3.0532 -7.90558,3.57635 -0.26323,0.0892 -2.15406,2.19314 -3.80273,4.02344 -0.58532,-1.15996 -1.17586,-2.32146 -1.80273,-3.49024 -0.12794,-0.30621 -0.31117,-0.62627 -0.50977,-0.94726 -0.71828,-1.3141 -1.47319,-2.63208 -2.26172,-3.95313 -0.006,-0.0583 -0.0132,-0.1165 -0.01,-0.17187 0.0623,-0.92372 4.39388,-3.38611 5.10742,-5.42188 1.99677,-5.6963 -1.92929,-6.53433 -1.57617,-11.76953 0.0611,-0.90483 2.20171,-4.39879 2.15429,-4.62695 -0.87405,-4.21128 -8.60758,7.83857 -10.85351,8.59961 -0.75644,0.25622 -12.78657,-5.42725 -13.07101,-6.79775 -0.42088,-2.02779 5.32565,-5.20638 4.35547,-9.88086 -0.64981,-3.13099 0.32028,-11.06476 0.11366,-12.82315 -0.89611,1.2971 -6.68605,6.35617 -8.21718,7.98136 -4.39471,4.66449 6.36523,12.12506 1.02413,9.64735 -4.08785,-1.8964 -3.04318,-13.96103 -9.32802,-16.87656 -2.06892,-0.95974 -2.75849,-18.00253 -4.47156,-16.18429 -0.68362,0.72558 -5.89985,8.56467 -6.238,9.52925 -0.76045,2.16972 4.65279,12.17316 4.6059,13.72105 -5.38501,-3.12578 -14.03389,3.44765 -20.94593,0.52889 13.93326,12.94952 11.4932,1.58456 24.35255,11.77001 z"
       transform="matrix(-0.21161664,-0.4875748,0.57799325,-0.22818156,-139.9914,509.68036)"
       id="path21051-7-8-2-9-5"
       inkscape:connector-curvature="0"
       sodipodi:nodetypes="cccccccccccccccccccccccccccccccccccccccccccccccc" />
    <g
       id="g25489"
       transform="matrix(0.2202191,0,0,0.2202191,56.450858,151.521)">
      <g
         style="stroke-width:1.26835811"
         transform="matrix(0.80043446,0,0,0.77658758,50.433271,47.230415)"
         id="g4489">
        <path
           inkscape:connector-curvature="0"
           id="path4485"
           d="m 255.192,0 c 0,68.398 5.029,200.688 141.314,272.124 0,0 -77.683,94.668 -77.683,239.876 H 464.578 V 209.387 C 464.579,93.746 370.834,0 255.192,0 Z"
           style="fill:#f5f6f6;stroke-width:1.60873234" />
        <path
           inkscape:connector-curvature="0"
           id="path4487"
           d="m 255.192,0 c 0,68.398 -5.029,200.688 -141.314,272.124 0,0 77.683,94.668 77.683,239.876 H 45.806 V 209.387 C 45.806,93.746 139.552,0 255.192,0 Z"
           style="fill:#f5f6f6;stroke-width:1.60873234" />
      </g>
      <g
         style="stroke-width:1.26835811"
         transform="matrix(0.80043446,0,0,0.77658758,50.433271,47.230415)"
         id="g4495">
        <path
           inkscape:connector-curvature="0"
           id="path4491"
           d="M 113.878,272.124 C 246.647,202.533 254.844,69.764 255.179,0 85.529,136.166 85.537,271.577 85.537,271.577 114.053,355.489 124.884,412.012 126.8,512 h 64.761 c 0,-145.208 -77.683,-239.876 -77.683,-239.876 z"
           style="fill:#e5e5e5;stroke-width:1.60873234" />
        <path
           inkscape:connector-curvature="0"
           id="path4493"
           d="M 396.48,272.124 C 263.712,202.533 255.514,69.764 255.179,0 424.829,136.166 424.821,271.577 424.821,271.577 396.305,355.489 385.473,412.012 383.559,512 H 318.798 C 318.797,366.792 396.48,272.124 396.48,272.124 Z"
           style="fill:#e5e5e5;stroke-width:1.60873234" />
      </g>
      <path
         inkscape:connector-curvature="0"
         id="path4497"
         d="m 445.87272,270.67408 c 0,-4.14387 -2.25322,-7.77675 -5.63586,-9.80985 0.90929,-3.75713 -0.14328,-7.87227 -3.16332,-10.80156 -3.02004,-2.92929 -7.25994,-3.95205 -11.13324,-3.06907 -2.09554,-3.28186 -5.83917,-5.46796 -10.11109,-5.46796 -4.27112,0 -8.01555,2.1861 -10.11109,5.46796 -3.8725,-0.88221 -8.1124,0.13901 -11.13324,3.06907 -3.02004,2.93007 -4.07341,7.04365 -3.16332,10.80156 -3.38263,2.0331 -5.63585,5.66598 -5.63585,9.80985 0,4.14387 2.25322,7.77675 5.63585,9.80986 -0.90929,3.75713 0.14328,7.87149 3.16332,10.80155 2.32046,2.25211 5.36211,3.37738 8.40376,3.37738 0.9157,0 1.8314,-0.10406 2.72868,-0.3083 2.09554,3.28186 5.83997,5.46795 10.11109,5.46795 4.27112,0 8.01555,-2.18609 10.11109,-5.46795 0.89649,0.20424 1.81218,0.3083 2.72868,0.3083 3.04165,0 6.0841,-1.12605 8.40376,-3.37738 3.02004,-2.93006 4.07341,-7.04365 3.16332,-10.80155 3.38344,-2.03311 5.63746,-5.66599 5.63746,-9.80986 z"
         style="fill:#f6c958;stroke-width:1" />
      <path
         inkscape:connector-curvature="0"
         id="path4499"
         d="m 445.87272,270.67408 c 0,-4.14387 -2.25322,-7.77675 -5.63586,-9.80985 0.90929,-3.75713 -0.14328,-7.87227 -3.16332,-10.80156 -3.02004,-2.92929 -7.25994,-3.95205 -11.13324,-3.06907 -2.09554,-3.28186 -5.83917,-5.46796 -10.11109,-5.46796 0,8.2427 0,51.45437 0,58.2961 4.27112,0 8.01555,-2.18609 10.11109,-5.46795 0.89649,0.20424 1.81218,0.30831 2.72868,0.30831 3.04165,0 6.0841,-1.12606 8.40376,-3.37738 3.02004,-2.93007 4.07341,-7.04365 3.16332,-10.80156 3.38264,-2.03233 5.63666,-5.66521 5.63666,-9.80908 z"
         style="fill:#e5bc53;stroke-width:1" />
      <ellipse
         ry="8.0058413"
         rx="8.2516785"
         id="circle4501"
         cy="270.67175"
         cx="413.17093"
         style="fill:#ee964b;stroke-width:1" />
      <path
         inkscape:connector-curvature="0"
         id="path4503"
         d="m 413.17016,262.66824 c 4.55688,0 8.25168,3.58473 8.25168,8.00584 0,4.42111 -3.6948,8.00584 -8.25168,8.00584 0,-6.33928 0,-11.72336 0,-16.01168 z"
         style="fill:#df8d46;stroke-width:1" />
      <path
         inkscape:connector-curvature="0"
         id="path4505"
         d="m 397.05982,270.67408 c 0,-4.14387 -2.25322,-7.77675 -5.63586,-9.80985 0.90929,-3.75713 -0.14328,-7.87227 -3.16332,-10.80156 -3.02004,-2.92929 -7.25994,-3.95205 -11.13324,-3.06907 -2.09554,-3.28186 -5.83917,-5.46796 -10.11109,-5.46796 -4.27112,0 -8.01555,2.1861 -10.11109,5.46796 -3.8725,-0.88221 -8.1124,0.13901 -11.13324,3.06907 -3.02004,2.93007 -4.07341,7.04365 -3.16332,10.80156 -3.38263,2.0331 -5.63586,5.66598 -5.63586,9.80985 0,4.14387 2.25323,7.77675 5.63586,9.80986 -0.90929,3.75713 0.14328,7.87149 3.16332,10.80155 2.32126,2.25211 5.36211,3.37738 8.40376,3.37738 0.9157,0 1.8314,-0.10406 2.72788,-0.3083 2.09554,3.28186 5.83997,5.46795 10.11109,5.46795 4.27112,0 8.01555,-2.18609 10.11109,-5.46795 0.89648,0.20424 1.81218,0.3083 2.72868,0.3083 3.04165,0 6.0841,-1.12605 8.40376,-3.37738 3.02004,-2.93006 4.07341,-7.04365 3.16332,-10.80155 3.38423,-2.03311 5.63826,-5.66599 5.63826,-9.80986 z"
         style="fill:#fc9fd8;stroke-width:1" />
      <path
         inkscape:connector-curvature="0"
         id="path4507"
         d="m 397.05982,270.67408 c 0,-4.14387 -2.25322,-7.77675 -5.63586,-9.80985 0.90929,-3.75713 -0.14328,-7.87227 -3.16332,-10.80156 -3.02004,-2.92929 -7.25994,-3.95205 -11.13324,-3.06907 -2.09554,-3.28186 -5.83917,-5.46796 -10.11109,-5.46796 0,8.2427 0,51.45437 0,58.2961 4.27112,0 8.01555,-2.18609 10.11109,-5.46795 0.89649,0.20424 1.81218,0.30831 2.72868,0.30831 3.04165,0 6.0841,-1.12606 8.40376,-3.37738 3.02004,-2.93007 4.07341,-7.04365 3.16332,-10.80156 3.38263,-2.03233 5.63666,-5.66521 5.63666,-9.80908 z"
         style="fill:#ec96cb;stroke-width:1" />
      <ellipse
         ry="8.0058413"
         rx="8.2516785"
         id="circle4509"
         cy="270.67175"
         cx="367.01227"
         style="fill:#d4498d;stroke-width:1" />
      <path
         inkscape:connector-curvature="0"
         id="path4511"
         d="m 367.01631,262.66824 c 4.55687,0 8.25168,3.58473 8.25168,8.00584 0,4.42111 -3.69481,8.00584 -8.25168,8.00584 0,-6.33928 0,-11.72336 0,-16.01168 z"
         style="fill:#c84788;stroke-width:1" />
      <path
         inkscape:connector-curvature="0"
         id="path4513"
         d="m 419.67209,234.10147 c 0,-4.14388 -2.25322,-7.77675 -5.63586,-9.80986 0.9093,-3.75713 -0.14328,-7.87149 -3.16331,-10.80155 -3.02004,-2.92929 -7.25995,-3.95206 -11.13325,-3.06908 -2.09553,-3.28186 -5.83997,-5.46795 -10.11109,-5.46795 -4.27111,0 -8.01555,2.18609 -10.11108,5.46795 -3.87251,-0.8822 -8.11241,0.13901 -11.13325,3.06908 -3.02004,2.93006 -4.07341,7.04364 -3.16331,10.80155 -3.38264,2.03311 -5.63586,5.66598 -5.63586,9.80986 0,4.14387 2.25322,7.77674 5.63586,9.80985 -0.9093,3.75713 0.14327,7.87149 3.16331,10.80156 2.32046,2.25132 5.36211,3.37738 8.40376,3.37738 0.9157,0 1.8314,-0.10407 2.72789,-0.30831 2.09553,3.28186 5.83997,5.46795 10.11108,5.46795 4.27112,0 8.01555,-2.18609 10.11109,-5.46795 0.89649,0.20424 1.81219,0.30831 2.72868,0.30831 3.04165,0 6.08411,-1.12606 8.40376,-3.37738 3.02004,-2.93007 4.07342,-7.04365 3.16332,-10.80156 3.38504,-2.03311 5.63826,-5.66598 5.63826,-9.80985 z"
         style="fill:#d02d7f;stroke-width:1" />
      <path
         inkscape:connector-curvature="0"
         id="path4515"
         d="m 419.67209,234.10147 c 0,-4.14388 -2.25322,-7.77675 -5.63586,-9.80986 0.9093,-3.75713 -0.14328,-7.87149 -3.16331,-10.80155 -3.02004,-2.92929 -7.25995,-3.95206 -11.13325,-3.06908 -2.09553,-3.28186 -5.83997,-5.46795 -10.11109,-5.46795 0,4.0864 0,53.07976 0,58.2961 4.27112,0 8.01556,-2.1861 10.11109,-5.46796 0.89649,0.20425 1.81219,0.30831 2.72868,0.30831 3.04165,0 6.08411,-1.12605 8.40377,-3.37738 3.02003,-2.93006 4.07341,-7.04365 3.16331,-10.80156 3.38344,-2.03233 5.63666,-5.6652 5.63666,-9.80907 z"
         style="fill:#c42c78;stroke-width:1" />
      <ellipse
         ry="8.0058413"
         rx="8.2516785"
         id="circle4517"
         cy="234.09991"
         cx="389.63336"
         style="fill:#e759a0;stroke-width:1" />
      <path
         inkscape:connector-curvature="0"
         id="path4519"
         d="m 389.62938,226.09562 c 4.55688,0 8.25168,3.58473 8.25168,8.00585 0,4.42111 -3.6948,8.00584 -8.25168,8.00584 0,-4.62536 0,-11.1984 0,-16.01169 z"
         style="fill:#d85397;stroke-width:1" />
      <path
         inkscape:connector-curvature="0"
         id="path4521"
         d="m 175.574,270.67408 c 0,-4.14387 -2.25322,-7.77675 -5.63586,-9.80985 0.90929,-3.75713 -0.14328,-7.87227 -3.16332,-10.80156 -3.02004,-2.92929 -7.25994,-3.95205 -11.13324,-3.06907 -2.09554,-3.28186 -5.83917,-5.46796 -10.11109,-5.46796 -4.27192,0 -8.01555,2.1861 -10.11109,5.46796 -3.8725,-0.88221 -8.1124,0.13901 -11.13324,3.06907 -3.02084,2.93007 -4.07341,7.04365 -3.16332,10.80156 -3.38263,2.0331 -5.63585,5.66598 -5.63585,9.80985 0,4.14387 2.25322,7.77675 5.63585,9.80986 -0.90929,3.75713 0.14328,7.87149 3.16332,10.80155 2.32046,2.25211 5.36211,3.37738 8.40376,3.37738 0.9157,0 1.8314,-0.10406 2.72788,-0.3083 2.09554,3.28186 5.83997,5.46795 10.11109,5.46795 4.27112,0 8.01555,-2.18609 10.11109,-5.46795 0.89649,0.20424 1.81218,0.3083 2.72868,0.3083 3.04165,0 6.0841,-1.12605 8.40376,-3.37738 3.02004,-2.93006 4.07341,-7.04365 3.16332,-10.80155 3.38424,-2.03311 5.63826,-5.66599 5.63826,-9.80986 z"
         style="fill:#fc9fd8;stroke-width:1" />
      <path
         inkscape:connector-curvature="0"
         id="path4523"
         d="m 175.574,270.67408 c 0,-4.14387 -2.25322,-7.77675 -5.63586,-9.80985 0.90929,-3.75713 -0.14328,-7.87227 -3.16332,-10.80156 -3.02004,-2.92929 -7.25994,-3.95205 -11.13324,-3.06907 -2.09554,-3.28186 -5.83917,-5.46796 -10.11109,-5.46796 0,8.2427 0,51.45437 0,58.2961 4.27112,0 8.01555,-2.18609 10.11109,-5.46795 0.89649,0.20424 1.81218,0.30831 2.72868,0.30831 3.04165,0 6.0841,-1.12606 8.40376,-3.37738 3.02004,-2.93007 4.07341,-7.04365 3.16332,-10.80156 3.38264,-2.03233 5.63666,-5.66521 5.63666,-9.80908 z"
         style="fill:#ec96cb;stroke-width:1" />
      <ellipse
         ry="8.0058413"
         rx="8.2516785"
         id="circle4525"
         cy="270.67175"
         cx="145.53049"
         style="fill:#d4498d;stroke-width:1" />
      <path
         inkscape:connector-curvature="0"
         id="path4527"
         d="m 145.53049,262.66824 c 4.55688,0 8.25168,3.58473 8.25168,8.00584 0,4.42111 -3.6948,8.00584 -8.25168,8.00584 0,-6.33928 0,-11.72336 0,-16.01168 z"
         style="fill:#c84788;stroke-width:1" />
      <path
         inkscape:connector-curvature="0"
         id="path4529"
         d="m 127.56234,270.67408 c 0,-4.14387 -2.25322,-7.77675 -5.63586,-9.80985 0.90929,-3.75713 -0.14328,-7.87227 -3.16332,-10.80156 -3.02004,-2.92929 -7.25994,-3.95205 -11.13324,-3.06907 -2.09554,-3.28186 -5.83917,-5.46796 -10.111095,-5.46796 -4.27192,0 -8.01555,2.1861 -10.11108,5.46796 -3.87251,-0.88221 -8.11241,0.13901 -11.13325,3.06907 -3.02004,2.93007 -4.07341,7.04365 -3.16331,10.80156 -3.38264,2.0331 -5.63586,5.66598 -5.63586,9.80985 0,4.14387 2.25322,7.77675 5.63586,9.80986 -0.9093,3.75713 0.14327,7.87149 3.16331,10.80155 2.32046,2.25211 5.36211,3.37738 8.40376,3.37738 0.9157,0 1.8314,-0.10406 2.72788,-0.3083 2.09554,3.28186 5.83997,5.46795 10.11109,5.46795 4.271125,0 8.015555,-2.18609 10.111095,-5.46795 0.89649,0.20424 1.81218,0.3083 2.72868,0.3083 3.04165,0 6.0841,-1.12605 8.40376,-3.37738 3.02004,-2.93006 4.07341,-7.04365 3.16332,-10.80155 3.38504,-2.03311 5.63826,-5.66599 5.63826,-9.80986 z"
         style="fill:#f6c958;stroke-width:1" />
      <path
         inkscape:connector-curvature="0"
         id="path4531"
         d="m 127.56234,270.67408 c 0,-4.14387 -2.25322,-7.77675 -5.63586,-9.80985 0.90929,-3.75713 -0.14328,-7.87227 -3.16332,-10.80156 -3.02004,-2.92929 -7.25994,-3.95205 -11.13324,-3.06907 -2.09554,-3.28186 -5.83917,-5.46796 -10.111095,-5.46796 0,8.2427 0,51.45437 0,58.2961 4.271125,0 8.015555,-2.18609 10.111095,-5.46795 0.89649,0.20424 1.81218,0.30831 2.72868,0.30831 3.04165,0 6.0841,-1.12606 8.40376,-3.37738 3.02004,-2.93007 4.07341,-7.04365 3.16332,-10.80156 3.38344,-2.03233 5.63666,-5.66521 5.63666,-9.80908 z"
         style="fill:#e5bc53;stroke-width:1" />
      <ellipse
         ry="8.0058413"
         rx="8.2516785"
         id="circle4533"
         cy="270.67175"
         cx="97.51963"
         style="fill:#ee964b;stroke-width:1" />
      <path
         inkscape:connector-curvature="0"
         id="path4535"
         d="m 97.519625,262.66824 c 4.556885,0 8.251685,3.58473 8.251685,8.00584 0,4.42111 -3.6948,8.00584 -8.251685,8.00584 0,-6.33928 0,-11.72336 0,-16.01168 z"
         style="fill:#df8d46;stroke-width:1" />
      <path
         inkscape:connector-curvature="0"
         id="path4537"
         d="m 151.10392,234.10147 c 0,-4.14388 -2.25322,-7.77675 -5.63586,-9.80986 0.90929,-3.75713 -0.14328,-7.87149 -3.16332,-10.80155 -3.02004,-2.92929 -7.25994,-3.95206 -11.13324,-3.06908 -2.09554,-3.28186 -5.83917,-5.46795 -10.11109,-5.46795 -4.27112,0 -8.01555,2.18609 -10.11109,5.46795 -3.8725,-0.8822 -8.1124,0.13901 -11.133243,3.06908 -3.020042,2.93006 -4.073412,7.04364 -3.163322,10.80155 -3.38263,2.03311 -5.63586,5.66598 -5.63586,9.80986 0,4.14387 2.25323,7.77674 5.63586,9.80985 -0.90929,3.75713 0.14328,7.87149 3.163322,10.80156 2.320463,2.25132 5.362113,3.37738 8.403763,3.37738 0.9157,0 1.8314,-0.10407 2.72788,-0.30831 2.09554,3.28186 5.83997,5.46795 10.11109,5.46795 4.27112,0 8.01555,-2.18609 10.11109,-5.46795 0.89648,0.20424 1.81218,0.30831 2.72868,0.30831 3.04165,0 6.0841,-1.12606 8.40376,-3.37738 3.02004,-2.93007 4.07341,-7.04365 3.16332,-10.80156 3.38423,-2.03311 5.63826,-5.66598 5.63826,-9.80985 z"
         style="fill:#d02d7f;stroke-width:1" />
      <path
         inkscape:connector-curvature="0"
         id="path4539"
         d="m 151.10392,234.10147 c 0,-4.14388 -2.25322,-7.77675 -5.63586,-9.80986 0.90929,-3.75713 -0.14328,-7.87149 -3.16332,-10.80155 -3.02004,-2.92929 -7.25994,-3.95206 -11.13324,-3.06908 -2.09554,-3.28186 -5.83917,-5.46795 -10.11109,-5.46795 0,4.0864 0,53.07976 0,58.2961 4.27112,0 8.01555,-2.1861 10.11109,-5.46796 0.89649,0.20425 1.81218,0.30831 2.72868,0.30831 3.04165,0 6.0841,-1.12605 8.40376,-3.37738 3.02004,-2.93006 4.07341,-7.04365 3.16332,-10.80156 3.38263,-2.03233 5.63666,-5.6652 5.63666,-9.80907 z"
         style="fill:#c42c78;stroke-width:1" />
      <ellipse
         ry="8.0058413"
         rx="8.2516785"
         id="circle4541"
         cy="234.09991"
         cx="121.0572"
         style="fill:#e759a0;stroke-width:1" />
      <path
         inkscape:connector-curvature="0"
         id="path4543"
         d="m 121.06041,226.09562 c 4.55687,0 8.25168,3.58473 8.25168,8.00585 0,4.42111 -3.69481,8.00584 -8.25168,8.00584 0,-4.62536 0,-11.1984 0,-16.01169 z"
         style="fill:#d85397;stroke-width:1" />
      <g
         transform="translate(-2.0219927,-2.0344649)"
         id="g4545" />
      <g
         transform="translate(-2.0219927,-2.0344649)"
         id="g4547" />
      <g
         transform="translate(-2.0219927,-2.0344649)"
         id="g4549" />
      <g
         transform="translate(-2.0219927,-2.0344649)"
         id="g4551" />
      <g
         transform="translate(-2.0219927,-2.0344649)"
         id="g4553" />
      <g
         transform="translate(-2.0219927,-2.0344649)"
         id="g4555" />
      <g
         transform="translate(-2.0219927,-2.0344649)"
         id="g4557" />
      <g
         transform="translate(-2.0219927,-2.0344649)"
         id="g4559" />
      <g
         transform="translate(-2.0219927,-2.0344649)"
         id="g4561" />
      <g
         transform="translate(-2.0219927,-2.0344649)"
         id="g4563" />
      <g
         transform="translate(-2.0219927,-2.0344649)"
         id="g4565" />
      <g
         transform="translate(-2.0219927,-2.0344649)"
         id="g4567" />
      <g
         transform="translate(-2.0219927,-2.0344649)"
         id="g4569" />
      <g
         transform="translate(-2.0219927,-2.0344649)"
         id="g4571" />
      <g
         transform="translate(-2.0219927,-2.0344649)"
         id="g4573" />
    </g>
  </g>
</svg>
