<?xml version="1.0" encoding="UTF-8" standalone="no"?>
<!-- Generator: Adobe Illustrator 19.0.0, SVG Export Plug-In . SVG Version: 6.00 Build 0)  -->

<svg
   xmlns:dc="http://purl.org/dc/elements/1.1/"
   xmlns:cc="http://creativecommons.org/ns#"
   xmlns:rdf="http://www.w3.org/1999/02/22-rdf-syntax-ns#"
   xmlns:svg="http://www.w3.org/2000/svg"
   xmlns:sodipodi="http://sodipodi.sourceforge.net/DTD/sodipodi-0.dtd"
   xmlns:inkscape="http://www.inkscape.org/namespaces/inkscape"
   xmlns="http://www.w3.org/2000/svg"
   version="1.1"
   id="Layer_1"
   x="0px"
   y="0px"
   viewBox="0 0 511.99622 511.99622"
   xml:space="preserve"
   sodipodi:docname="polgari_pictogram.svg"
   width="511.99622"
   height="511.99622"
   inkscape:version="0.92.0 r15299"><metadata
     id="metadata4580"><rdf:RDF><cc:Work
         rdf:about=""><dc:format>image/svg+xml</dc:format><dc:type
           rdf:resource="http://purl.org/dc/dcmitype/StillImage" /><dc:title></dc:title></cc:Work></rdf:RDF></metadata><defs
     id="defs4578"><pattern
       y="0"
       x="0"
       height="6"
       width="6"
       patternUnits="userSpaceOnUse"
       id="EMFhbasepattern" /></defs><sodipodi:namedview
     pagecolor="#ffffff"
     bordercolor="#666666"
     borderopacity="1"
     objecttolerance="10"
     gridtolerance="10"
     guidetolerance="10"
     inkscape:pageopacity="0"
     inkscape:pageshadow="2"
     inkscape:window-width="1366"
     inkscape:window-height="705"
     id="namedview4576"
     showgrid="false"
     inkscape:zoom="0.74025241"
     inkscape:cx="496.48158"
     inkscape:cy="207.82111"
     inkscape:window-x="-8"
     inkscape:window-y="-8"
     inkscape:window-maximized="1"
     inkscape:current-layer="Layer_1" /><path
     id="path4595"
     d="m 511.99621,255.9981 c 0,141.35896 -114.63915,255.99811 -255.99811,255.99811 C 114.63915,511.99621 0,397.35706 0,255.9981 0,114.63915 114.63915,0 255.9981,0 397.35706,0 511.99621,114.63915 511.99621,255.9981 Z"
     style="fill:#273b7a;fill-opacity:1;fill-rule:nonzero;stroke:none"
     inkscape:connector-curvature="0" /><path
     style="fill:#121149;stroke-width:1"
     d="M 360.64538,173.93453 C 362.02283,186.97494 255.99551,61.041073 255.99662,74.273137 187.10105,182.69059 200.0529,242.10713 121.06041,242.10731 c -5.32144,-0.04 87.9905,203.74106 82.70489,202.73595 l 64.74968,66.40176 c 0.30264,0.002 0.60233,0.0112 0.90403,0.0112 114.05911,0 209.51932,-81.64559 233.85428,-191.05472 z"
     id="path4487-1"
     inkscape:connector-curvature="0"
     sodipodi:nodetypes="cccccscc" /><g
     id="g4489"
     transform="matrix(0.80043446,0,0,0.77658758,50.433271,47.230415)"
     style="stroke-width:1.26835811"><path
       style="fill:#f5f6f6;stroke-width:1.60873234"
       d="m 255.192,0 c 0,68.398 5.029,200.688 141.314,272.124 0,0 -77.683,94.668 -77.683,239.876 H 464.578 V 209.387 C 464.579,93.746 370.834,0 255.192,0 Z"
       id="path4485"
       inkscape:connector-curvature="0" /><path
       style="fill:#f5f6f6;stroke-width:1.60873234"
       d="m 255.192,0 c 0,68.398 -5.029,200.688 -141.314,272.124 0,0 77.683,94.668 77.683,239.876 H 45.806 V 209.387 C 45.806,93.746 139.552,0 255.192,0 Z"
       id="path4487"
       inkscape:connector-curvature="0" /></g><g
     id="g4495"
     transform="matrix(0.80043446,0,0,0.77658758,50.433271,47.230415)"
     style="stroke-width:1.26835811"><path
       style="fill:#e5e5e5;stroke-width:1.60873234"
       d="M 113.878,272.124 C 246.647,202.533 254.844,69.764 255.179,0 85.529,136.166 85.537,271.577 85.537,271.577 114.053,355.489 124.884,412.012 126.8,512 h 64.761 c 0,-145.208 -77.683,-239.876 -77.683,-239.876 z"
       id="path4491"
       inkscape:connector-curvature="0" /><path
       style="fill:#e5e5e5;stroke-width:1.60873234"
       d="M 396.48,272.124 C 263.712,202.533 255.514,69.764 255.179,0 424.829,136.166 424.821,271.577 424.821,271.577 396.305,355.489 385.473,412.012 383.559,512 H 318.798 C 318.797,366.792 396.48,272.124 396.48,272.124 Z"
       id="path4493"
       inkscape:connector-curvature="0" /></g><path
     style="fill:#f6c958;stroke-width:1"
     d="m 397.05982,328.97018 c 0,-4.14387 -2.25322,-7.77675 -5.63586,-9.80985 0.90929,-3.75713 -0.14328,-7.87227 -3.16332,-10.80156 -3.02004,-2.92929 -7.25994,-3.95205 -11.13324,-3.06907 -2.09554,-3.28186 -5.83917,-5.46796 -10.11109,-5.46796 -4.27112,0 -8.01555,2.1861 -10.11109,5.46796 -3.8725,-0.88221 -8.1124,0.13901 -11.13324,3.06907 -3.02004,2.93007 -4.07341,7.04365 -3.16332,10.80156 -3.38263,2.0331 -5.63585,5.66598 -5.63585,9.80985 0,4.14387 2.25322,7.77675 5.63585,9.80986 -0.90929,3.75713 0.14328,7.87149 3.16332,10.80155 2.32046,2.25211 5.36211,3.37738 8.40376,3.37738 0.9157,0 1.8314,-0.10406 2.72868,-0.3083 2.09554,3.28186 5.83997,5.46795 10.11109,5.46795 4.27112,0 8.01555,-2.18609 10.11109,-5.46795 0.89649,0.20424 1.81218,0.3083 2.72868,0.3083 3.04165,0 6.0841,-1.12605 8.40376,-3.37738 3.02004,-2.93006 4.07341,-7.04365 3.16332,-10.80155 3.38344,-2.03311 5.63746,-5.66599 5.63746,-9.80986 z"
     id="path4497"
     inkscape:connector-curvature="0" /><path
     style="fill:#e5bc53;stroke-width:1"
     d="m 397.05982,328.97018 c 0,-4.14387 -2.25322,-7.77675 -5.63586,-9.80985 0.90929,-3.75713 -0.14328,-7.87227 -3.16332,-10.80156 -3.02004,-2.92929 -7.25994,-3.95205 -11.13324,-3.06907 -2.09554,-3.28186 -5.83917,-5.46796 -10.11109,-5.46796 0,8.2427 0,51.45437 0,58.2961 4.27112,0 8.01555,-2.18609 10.11109,-5.46795 0.89649,0.20424 1.81218,0.30831 2.72868,0.30831 3.04165,0 6.0841,-1.12606 8.40376,-3.37738 3.02004,-2.93007 4.07341,-7.04365 3.16332,-10.80156 3.38264,-2.03233 5.63666,-5.66521 5.63666,-9.80908 z"
     id="path4499"
     inkscape:connector-curvature="0" /><ellipse
     style="fill:#ee964b;stroke-width:1"
     cx="413.17093"
     cy="270.67175"
     id="circle4501"
     rx="8.2516785"
     ry="8.0058413" /><path
     style="fill:#df8d46;stroke-width:1"
     d="m 413.17016,262.66824 c 4.55688,0 8.25168,3.58473 8.25168,8.00584 0,4.42111 -3.6948,8.00584 -8.25168,8.00584 0,-6.33928 0,-11.72336 0,-16.01168 z"
     id="path4503"
     inkscape:connector-curvature="0" /><path
     style="fill:#fc9fd8;stroke-width:1"
     d="m 397.05982,270.67408 c 0,-4.14387 -2.25322,-7.77675 -5.63586,-9.80985 0.90929,-3.75713 -0.14328,-7.87227 -3.16332,-10.80156 -3.02004,-2.92929 -7.25994,-3.95205 -11.13324,-3.06907 -2.09554,-3.28186 -5.83917,-5.46796 -10.11109,-5.46796 -4.27112,0 -8.01555,2.1861 -10.11109,5.46796 -3.8725,-0.88221 -8.1124,0.13901 -11.13324,3.06907 -3.02004,2.93007 -4.07341,7.04365 -3.16332,10.80156 -3.38263,2.0331 -5.63586,5.66598 -5.63586,9.80985 0,4.14387 2.25323,7.77675 5.63586,9.80986 -0.90929,3.75713 0.14328,7.87149 3.16332,10.80155 2.32126,2.25211 5.36211,3.37738 8.40376,3.37738 0.9157,0 1.8314,-0.10406 2.72788,-0.3083 2.09554,3.28186 5.83997,5.46795 10.11109,5.46795 4.27112,0 8.01555,-2.18609 10.11109,-5.46795 0.89648,0.20424 1.81218,0.3083 2.72868,0.3083 3.04165,0 6.0841,-1.12605 8.40376,-3.37738 3.02004,-2.93006 4.07341,-7.04365 3.16332,-10.80155 3.38423,-2.03311 5.63826,-5.66599 5.63826,-9.80986 z"
     id="path4505"
     inkscape:connector-curvature="0" /><path
     style="fill:#ec96cb;stroke-width:1"
     d="m 397.05982,270.67408 c 0,-4.14387 -2.25322,-7.77675 -5.63586,-9.80985 0.90929,-3.75713 -0.14328,-7.87227 -3.16332,-10.80156 -3.02004,-2.92929 -7.25994,-3.95205 -11.13324,-3.06907 -2.09554,-3.28186 -5.83917,-5.46796 -10.11109,-5.46796 0,8.2427 0,51.45437 0,58.2961 4.27112,0 8.01555,-2.18609 10.11109,-5.46795 0.89649,0.20424 1.81218,0.30831 2.72868,0.30831 3.04165,0 6.0841,-1.12606 8.40376,-3.37738 3.02004,-2.93007 4.07341,-7.04365 3.16332,-10.80156 3.38263,-2.03233 5.63666,-5.66521 5.63666,-9.80908 z"
     id="path4507"
     inkscape:connector-curvature="0" /><ellipse
     style="fill:#d4498d;stroke-width:1"
     cx="367.01227"
     cy="270.67175"
     id="circle4509"
     rx="8.2516785"
     ry="8.0058413" /><path
     style="fill:#c84788;stroke-width:1"
     d="m 367.01631,262.66824 c 4.55687,0 8.25168,3.58473 8.25168,8.00584 0,4.42111 -3.69481,8.00584 -8.25168,8.00584 0,-6.33928 0,-11.72336 0,-16.01168 z"
     id="path4511"
     inkscape:connector-curvature="0" /><path
     style="fill:#d02d7f;stroke-width:1"
     d="m 419.67209,234.10147 c 0,-4.14388 -2.25322,-7.77675 -5.63586,-9.80986 0.9093,-3.75713 -0.14328,-7.87149 -3.16331,-10.80155 -3.02004,-2.92929 -7.25995,-3.95206 -11.13325,-3.06908 -2.09553,-3.28186 -5.83997,-5.46795 -10.11109,-5.46795 -4.27111,0 -8.01555,2.18609 -10.11108,5.46795 -3.87251,-0.8822 -8.11241,0.13901 -11.13325,3.06908 -3.02004,2.93006 -4.07341,7.04364 -3.16331,10.80155 -3.38264,2.03311 -5.63586,5.66598 -5.63586,9.80986 0,4.14387 2.25322,7.77674 5.63586,9.80985 -0.9093,3.75713 0.14327,7.87149 3.16331,10.80156 2.32046,2.25132 5.36211,3.37738 8.40376,3.37738 0.9157,0 1.8314,-0.10407 2.72789,-0.30831 2.09553,3.28186 5.83997,5.46795 10.11108,5.46795 4.27112,0 8.01555,-2.18609 10.11109,-5.46795 0.89649,0.20424 1.81219,0.30831 2.72868,0.30831 3.04165,0 6.08411,-1.12606 8.40376,-3.37738 3.02004,-2.93007 4.07342,-7.04365 3.16332,-10.80156 3.38504,-2.03311 5.63826,-5.66598 5.63826,-9.80985 z"
     id="path4513"
     inkscape:connector-curvature="0" /><path
     style="fill:#c42c78;stroke-width:1"
     d="m 419.67209,234.10147 c 0,-4.14388 -2.25322,-7.77675 -5.63586,-9.80986 0.9093,-3.75713 -0.14328,-7.87149 -3.16331,-10.80155 -3.02004,-2.92929 -7.25995,-3.95206 -11.13325,-3.06908 -2.09553,-3.28186 -5.83997,-5.46795 -10.11109,-5.46795 0,4.0864 0,53.07976 0,58.2961 4.27112,0 8.01556,-2.1861 10.11109,-5.46796 0.89649,0.20425 1.81219,0.30831 2.72868,0.30831 3.04165,0 6.08411,-1.12605 8.40377,-3.37738 3.02003,-2.93006 4.07341,-7.04365 3.16331,-10.80156 3.38344,-2.03233 5.63666,-5.6652 5.63666,-9.80907 z"
     id="path4515"
     inkscape:connector-curvature="0" /><ellipse
     style="fill:#e759a0;stroke-width:1"
     cx="389.63336"
     cy="234.09991"
     id="circle4517"
     rx="8.2516785"
     ry="8.0058413" /><path
     style="fill:#d85397;stroke-width:1"
     d="m 389.62938,226.09562 c 4.55688,0 8.25168,3.58473 8.25168,8.00585 0,4.42111 -3.6948,8.00584 -8.25168,8.00584 0,-4.62536 0,-11.1984 0,-16.01169 z"
     id="path4519"
     inkscape:connector-curvature="0" /><path
     style="fill:#fc9fd8;stroke-width:1"
     d="m 175.574,270.67408 c 0,-4.14387 -2.25322,-7.77675 -5.63586,-9.80985 0.90929,-3.75713 -0.14328,-7.87227 -3.16332,-10.80156 -3.02004,-2.92929 -7.25994,-3.95205 -11.13324,-3.06907 -2.09554,-3.28186 -5.83917,-5.46796 -10.11109,-5.46796 -4.27192,0 -8.01555,2.1861 -10.11109,5.46796 -3.8725,-0.88221 -8.1124,0.13901 -11.13324,3.06907 -3.02084,2.93007 -4.07341,7.04365 -3.16332,10.80156 -3.38263,2.0331 -5.63585,5.66598 -5.63585,9.80985 0,4.14387 2.25322,7.77675 5.63585,9.80986 -0.90929,3.75713 0.14328,7.87149 3.16332,10.80155 2.32046,2.25211 5.36211,3.37738 8.40376,3.37738 0.9157,0 1.8314,-0.10406 2.72788,-0.3083 2.09554,3.28186 5.83997,5.46795 10.11109,5.46795 4.27112,0 8.01555,-2.18609 10.11109,-5.46795 0.89649,0.20424 1.81218,0.3083 2.72868,0.3083 3.04165,0 6.0841,-1.12605 8.40376,-3.37738 3.02004,-2.93006 4.07341,-7.04365 3.16332,-10.80155 3.38424,-2.03311 5.63826,-5.66599 5.63826,-9.80986 z"
     id="path4521"
     inkscape:connector-curvature="0" /><path
     style="fill:#ec96cb;stroke-width:1"
     d="m 175.574,270.67408 c 0,-4.14387 -2.25322,-7.77675 -5.63586,-9.80985 0.90929,-3.75713 -0.14328,-7.87227 -3.16332,-10.80156 -3.02004,-2.92929 -7.25994,-3.95205 -11.13324,-3.06907 -2.09554,-3.28186 -5.83917,-5.46796 -10.11109,-5.46796 0,8.2427 0,51.45437 0,58.2961 4.27112,0 8.01555,-2.18609 10.11109,-5.46795 0.89649,0.20424 1.81218,0.30831 2.72868,0.30831 3.04165,0 6.0841,-1.12606 8.40376,-3.37738 3.02004,-2.93007 4.07341,-7.04365 3.16332,-10.80156 3.38264,-2.03233 5.63666,-5.66521 5.63666,-9.80908 z"
     id="path4523"
     inkscape:connector-curvature="0" /><ellipse
     style="fill:#d4498d;stroke-width:1"
     cx="145.53049"
     cy="270.67175"
     id="circle4525"
     rx="8.2516785"
     ry="8.0058413" /><path
     style="fill:#c84788;stroke-width:1"
     d="m 145.53049,262.66824 c 4.55688,0 8.25168,3.58473 8.25168,8.00584 0,4.42111 -3.6948,8.00584 -8.25168,8.00584 0,-6.33928 0,-11.72336 0,-16.01168 z"
     id="path4527"
     inkscape:connector-curvature="0" /><path
     style="fill:#f6c958;stroke-width:1"
     d="m 127.56234,270.67408 c 0,-4.14387 -2.25322,-7.77675 -5.63586,-9.80985 0.90929,-3.75713 -0.14328,-7.87227 -3.16332,-10.80156 -3.02004,-2.92929 -7.25994,-3.95205 -11.13324,-3.06907 -2.09554,-3.28186 -5.83917,-5.46796 -10.111095,-5.46796 -4.27192,0 -8.01555,2.1861 -10.11108,5.46796 -3.87251,-0.88221 -8.11241,0.13901 -11.13325,3.06907 -3.02004,2.93007 -4.07341,7.04365 -3.16331,10.80156 -3.38264,2.0331 -5.63586,5.66598 -5.63586,9.80985 0,4.14387 2.25322,7.77675 5.63586,9.80986 -0.9093,3.75713 0.14327,7.87149 3.16331,10.80155 2.32046,2.25211 5.36211,3.37738 8.40376,3.37738 0.9157,0 1.8314,-0.10406 2.72788,-0.3083 2.09554,3.28186 5.83997,5.46795 10.11109,5.46795 4.271125,0 8.015555,-2.18609 10.111095,-5.46795 0.89649,0.20424 1.81218,0.3083 2.72868,0.3083 3.04165,0 6.0841,-1.12605 8.40376,-3.37738 3.02004,-2.93006 4.07341,-7.04365 3.16332,-10.80155 3.38504,-2.03311 5.63826,-5.66599 5.63826,-9.80986 z"
     id="path4529"
     inkscape:connector-curvature="0" /><path
     style="fill:#e5bc53;stroke-width:1"
     d="m 127.56234,270.67408 c 0,-4.14387 -2.25322,-7.77675 -5.63586,-9.80985 0.90929,-3.75713 -0.14328,-7.87227 -3.16332,-10.80156 -3.02004,-2.92929 -7.25994,-3.95205 -11.13324,-3.06907 -2.09554,-3.28186 -5.83917,-5.46796 -10.111095,-5.46796 0,8.2427 0,51.45437 0,58.2961 4.271125,0 8.015555,-2.18609 10.111095,-5.46795 0.89649,0.20424 1.81218,0.30831 2.72868,0.30831 3.04165,0 6.0841,-1.12606 8.40376,-3.37738 3.02004,-2.93007 4.07341,-7.04365 3.16332,-10.80156 3.38344,-2.03233 5.63666,-5.66521 5.63666,-9.80908 z"
     id="path4531"
     inkscape:connector-curvature="0" /><ellipse
     style="fill:#ee964b;stroke-width:1"
     cx="97.51963"
     cy="270.67175"
     id="circle4533"
     rx="8.2516785"
     ry="8.0058413" /><path
     style="fill:#df8d46;stroke-width:1"
     d="m 97.519625,262.66824 c 4.556885,0 8.251685,3.58473 8.251685,8.00584 0,4.42111 -3.6948,8.00584 -8.251685,8.00584 0,-6.33928 0,-11.72336 0,-16.01168 z"
     id="path4535"
     inkscape:connector-curvature="0" /><path
     style="fill:#d02d7f;stroke-width:1"
     d="m 151.10392,234.10147 c 0,-4.14388 -2.25322,-7.77675 -5.63586,-9.80986 0.90929,-3.75713 -0.14328,-7.87149 -3.16332,-10.80155 -3.02004,-2.92929 -7.25994,-3.95206 -11.13324,-3.06908 -2.09554,-3.28186 -5.83917,-5.46795 -10.11109,-5.46795 -4.27112,0 -8.01555,2.18609 -10.11109,5.46795 -3.8725,-0.8822 -8.1124,0.13901 -11.133243,3.06908 -3.020042,2.93006 -4.073412,7.04364 -3.163322,10.80155 -3.38263,2.03311 -5.63586,5.66598 -5.63586,9.80986 0,4.14387 2.25323,7.77674 5.63586,9.80985 -0.90929,3.75713 0.14328,7.87149 3.163322,10.80156 2.320463,2.25132 5.362113,3.37738 8.403763,3.37738 0.9157,0 1.8314,-0.10407 2.72788,-0.30831 2.09554,3.28186 5.83997,5.46795 10.11109,5.46795 4.27112,0 8.01555,-2.18609 10.11109,-5.46795 0.89648,0.20424 1.81218,0.30831 2.72868,0.30831 3.04165,0 6.0841,-1.12606 8.40376,-3.37738 3.02004,-2.93007 4.07341,-7.04365 3.16332,-10.80156 3.38423,-2.03311 5.63826,-5.66598 5.63826,-9.80985 z"
     id="path4537"
     inkscape:connector-curvature="0" /><path
     style="fill:#c42c78;stroke-width:1"
     d="m 151.10392,234.10147 c 0,-4.14388 -2.25322,-7.77675 -5.63586,-9.80986 0.90929,-3.75713 -0.14328,-7.87149 -3.16332,-10.80155 -3.02004,-2.92929 -7.25994,-3.95206 -11.13324,-3.06908 -2.09554,-3.28186 -5.83917,-5.46795 -10.11109,-5.46795 0,4.0864 0,53.07976 0,58.2961 4.27112,0 8.01555,-2.1861 10.11109,-5.46796 0.89649,0.20425 1.81218,0.30831 2.72868,0.30831 3.04165,0 6.0841,-1.12605 8.40376,-3.37738 3.02004,-2.93006 4.07341,-7.04365 3.16332,-10.80156 3.38263,-2.03233 5.63666,-5.6652 5.63666,-9.80907 z"
     id="path4539"
     inkscape:connector-curvature="0" /><ellipse
     style="fill:#e759a0;stroke-width:1"
     cx="121.0572"
     cy="234.09991"
     id="circle4541"
     rx="8.2516785"
     ry="8.0058413" /><path
     style="fill:#d85397;stroke-width:1"
     d="m 121.06041,226.09562 c 4.55687,0 8.25168,3.58473 8.25168,8.00585 0,4.42111 -3.69481,8.00584 -8.25168,8.00584 0,-4.62536 0,-11.1984 0,-16.01169 z"
     id="path4543"
     inkscape:connector-curvature="0" /><g
     id="g4545"
     transform="translate(-2.0219927,-2.0344649)" /><g
     id="g4547"
     transform="translate(-2.0219927,-2.0344649)" /><g
     id="g4549"
     transform="translate(-2.0219927,-2.0344649)" /><g
     id="g4551"
     transform="translate(-2.0219927,-2.0344649)" /><g
     id="g4553"
     transform="translate(-2.0219927,-2.0344649)" /><g
     id="g4555"
     transform="translate(-2.0219927,-2.0344649)" /><g
     id="g4557"
     transform="translate(-2.0219927,-2.0344649)" /><g
     id="g4559"
     transform="translate(-2.0219927,-2.0344649)" /><g
     id="g4561"
     transform="translate(-2.0219927,-2.0344649)" /><g
     id="g4563"
     transform="translate(-2.0219927,-2.0344649)" /><g
     id="g4565"
     transform="translate(-2.0219927,-2.0344649)" /><g
     id="g4567"
     transform="translate(-2.0219927,-2.0344649)" /><g
     id="g4569"
     transform="translate(-2.0219927,-2.0344649)" /><g
     id="g4571"
     transform="translate(-2.0219927,-2.0344649)" /><g
     id="g4573"
     transform="translate(-2.0219927,-2.0344649)" /></svg>